<svg width="1000" height="1400" viewBox="0 0 1000 1400" fill="none" xmlns="http://www.w3.org/2000/svg">
<g clip-path="url(#clip0_19_81)">
<rect width="1000" height="1400" fill="white"/>
<rect x="-147" y="-263" width="1295" height="1926" fill="#4285F4"/>
<rect x="50" y="50" width="900" height="1300" rx="50" fill="white"/>
<path d="M563 709L411.5 707L417.5 783L498.5 786H556L563 709Z" fill="#FBBC04"/>
<path d="M397.5 1071L368 1088.5L385 1091.5L389 1105L397 1077L397.5 1071Z" fill="#EF5350" stroke="black"/>
<path d="M239.5 608V597L272 576L284 583L284.5 599.5L255.5 619L239.5 608Z" fill="#4CAF50"/>
<path d="M382.5 417L384 436L396 444L429.5 424.5L394 403.5L382.5 417Z" fill="#FBBC04"/>
<path d="M363 833L375 812.5L438.5 843.5L432 849.5V854.5L440 861H455L471 855L502.5 853.5L507.5 859.5L518.5 865L528 865.5L534.5 862L538 857L537.5 851L533 845L532.5 842.5L604.5 802L625.5 831.5L636.5 859.5L642.5 889L640 929L626.5 964L604.5 996L580 1018L554 1032L527.5 1041L490.5 1046L451.5 1038.5L418 1023.5L386 994.5L362.5 958.5L349.5 918L348.5 887L352 860.5L363 833Z" fill="#4285F4"/>
<path d="M485.576 745.722C486.978 746.15 488.489 746.034 489.809 745.397C491.129 744.76 492.161 743.648 492.698 742.284C493.234 740.92 493.237 739.404 492.706 738.038C492.174 736.672 491.147 735.557 489.83 734.914C488.644 734.448 487.363 734.274 486.095 734.407C484.828 734.541 483.611 734.978 482.548 735.681C481.742 736.422 481.161 737.375 480.872 738.431C480.583 739.487 480.597 740.603 480.914 741.651C481.23 742.699 481.835 743.637 482.659 744.357C483.484 745.077 484.495 745.55 485.576 745.722ZM483.391 739.82C483.391 736.601 489.792 736.217 490.405 739.82C491.593 744.841 483.199 744.534 483.391 739.82ZM481.092 500.433C475.189 507.37 476.607 516.3 485.882 520.669C487.981 520.128 490.122 519.769 492.283 519.596C494.745 519.757 497.192 520.103 499.603 520.631C502.16 519.094 504.149 516.768 505.268 514.002C506.388 511.237 506.579 508.183 505.812 505.3C505.098 502.793 503.705 500.532 501.787 498.766C499.869 497.001 497.5 495.8 494.942 495.296C492.385 494.793 489.737 495.006 487.293 495.912C484.849 496.819 482.703 498.383 481.092 500.433ZM478.945 566.967C478.9 566.741 478.778 566.538 478.6 566.392C478.422 566.245 478.198 566.165 477.968 566.165C477.737 566.165 477.514 566.245 477.336 566.392C477.158 566.538 477.036 566.741 476.991 566.967C476.706 569.103 476.54 571.252 476.492 573.406C476.593 573.713 476.788 573.98 477.05 574.169C477.311 574.359 477.626 574.461 477.949 574.461C478.272 574.461 478.586 574.359 478.848 574.169C479.109 573.98 479.304 573.713 479.405 573.406C479.597 572.755 478.945 567.619 478.945 566.967ZM509.185 567.657C509.14 567.431 509.018 567.228 508.84 567.081C508.662 566.935 508.438 566.855 508.208 566.855C507.977 566.855 507.754 566.935 507.575 567.081C507.397 567.228 507.275 567.431 507.23 567.657C507.23 568.194 506.579 573.368 506.77 574.096C506.871 574.403 507.066 574.67 507.328 574.859C507.589 575.049 507.904 575.151 508.227 575.151C508.55 575.151 508.864 575.049 509.126 574.859C509.387 574.67 509.582 574.403 509.683 574.096C509.875 573.368 509.185 568.232 509.185 567.657ZM479.214 554.358C474.614 553.975 472.506 561.103 472.43 561.41C472.364 561.629 472.387 561.864 472.495 562.066C472.603 562.267 472.786 562.417 473.005 562.483C473.223 562.549 473.459 562.526 473.66 562.418C473.862 562.31 474.012 562.127 474.078 561.908C474.308 561.333 476.761 557.156 479.635 557.309C481.092 557.424 481.82 554.55 479.214 554.358ZM510.335 562.445C510.264 561.094 509.781 559.798 508.953 558.729C508.124 557.66 506.988 556.871 505.697 556.466C505.311 556.364 504.9 556.42 504.555 556.622C504.21 556.823 503.959 557.153 503.858 557.539C503.756 557.925 503.812 558.336 504.013 558.681C504.214 559.026 504.544 559.277 504.931 559.379C505.873 559.714 506.716 560.278 507.385 561.021C508.055 561.764 508.528 562.661 508.763 563.633C508.824 563.841 508.966 564.017 509.156 564.121C509.347 564.225 509.571 564.25 509.779 564.189C509.987 564.128 510.163 563.987 510.267 563.796C510.371 563.606 510.396 563.382 510.335 563.173C510.335 563.173 510.411 562.752 510.335 562.445ZM492.59 582.796C492.743 582.746 492.876 582.648 492.971 582.518C493.066 582.387 493.117 582.23 493.117 582.068C493.117 581.907 493.066 581.749 492.971 581.619C492.876 581.488 492.743 581.39 492.59 581.34C490.826 580.995 488.757 580.88 488.757 579.155C488.959 577.004 489.292 574.866 489.753 572.755C489.775 572.564 489.727 572.372 489.62 572.214C489.512 572.055 489.352 571.94 489.167 571.889C488.982 571.838 488.785 571.855 488.612 571.936C488.438 572.018 488.299 572.159 488.22 572.333C487.267 574.804 486.598 577.376 486.227 579.998C486.304 582.298 488.757 584.023 492.59 582.796ZM497.38 587.817C496.537 588.73 495.501 589.445 494.348 589.909C493.194 590.373 491.952 590.575 490.712 590.5C489.861 590.357 489.05 590.038 488.33 589.563C487.611 589.088 486.999 588.467 486.534 587.74C486.427 587.542 486.246 587.395 486.03 587.33C485.815 587.265 485.582 587.289 485.384 587.396C485.186 587.502 485.038 587.683 484.974 587.899C484.909 588.115 484.932 588.347 485.039 588.545C485.652 589.874 486.613 591.013 487.819 591.841C489.026 592.669 490.434 593.156 491.894 593.25C493.354 593.344 494.813 593.042 496.116 592.376C497.419 591.71 498.518 590.704 499.297 589.465C499.795 588.2 498.415 586.897 497.38 587.817ZM496.959 815.553C497.055 815.619 497.168 815.655 497.284 815.655C497.401 815.655 497.514 815.619 497.61 815.553C501.711 812.985 532.564 788.456 535.094 786.272C535.178 786.194 535.237 786.092 535.263 785.98C535.289 785.868 535.281 785.751 535.239 785.644C535.198 785.537 535.126 785.444 535.031 785.378C534.937 785.313 534.825 785.277 534.71 785.275C534.71 785.275 471.472 784.049 460.319 783.666C459.667 783.666 459.552 784.356 459.897 784.662C461.928 786.655 486.419 807.466 496.959 815.553ZM630.182 1110.78C633.056 1104.92 627.69 1095.07 625.276 1091.08C625.229 1090.99 625.155 1090.9 625.064 1090.85C624.972 1090.79 624.867 1090.76 624.759 1090.76C624.651 1090.76 624.545 1090.79 624.453 1090.85C624.362 1090.9 624.288 1090.99 624.241 1091.08C622.286 1094.92 618.185 1104.96 622.095 1110.74C624.739 1115.04 628.112 1115.34 630.182 1110.78ZM396.773 1069.58C396.39 1069.81 368.335 1085.95 367.262 1087.6C366.189 1089.24 366.227 1090.47 367.683 1090.58C379.181 1091.31 383.589 1092.27 384.049 1092.81C384.777 1095.38 385.582 1105.8 387.115 1107.87C387.278 1108.13 387.512 1108.33 387.788 1108.45C388.064 1108.58 388.37 1108.62 388.669 1108.58C388.969 1108.53 389.25 1108.4 389.477 1108.2C389.704 1108 389.869 1107.74 389.951 1107.45C391.561 1101.39 396.62 1082.54 397.616 1079.43C398.613 1076.33 400.299 1068.32 396.773 1069.58ZM396.237 1073.18C395.853 1075.71 394.014 1083.03 388.571 1101.74C388.121 1097.84 387.3 1093.99 386.118 1090.24C381.532 1088.87 376.796 1088.06 372.014 1087.83C379.91 1082.92 388.188 1078.21 396.122 1073.18H396.237ZM416.588 1085.41C416.903 1085.38 417.199 1085.24 417.425 1085.02C417.651 1084.8 417.794 1084.51 417.83 1084.19C417.866 1083.88 417.792 1083.56 417.622 1083.29C417.452 1083.03 417.195 1082.83 416.895 1082.73C415.477 1082.31 414.001 1082.13 412.525 1082.19V1076.63C412.525 1076.37 412.42 1076.12 412.234 1075.93C412.047 1075.74 411.793 1075.64 411.529 1075.64C411.265 1075.64 411.011 1075.74 410.824 1075.93C410.637 1076.12 410.532 1076.37 410.532 1076.63C410.532 1078.63 410.187 1080.47 410.034 1082.34C408.233 1082.34 406.431 1082.69 404.553 1082.96C402.675 1083.23 403.48 1085.37 404.86 1085.26C406.481 1085.16 408.106 1085.16 409.728 1085.26C409.728 1086.94 409.383 1088.74 409.306 1090.47C409.367 1090.87 409.568 1091.23 409.874 1091.49C410.18 1091.76 410.57 1091.9 410.973 1091.9C411.376 1091.9 411.766 1091.76 412.072 1091.49C412.378 1091.23 412.58 1090.87 412.64 1090.47V1085.37C413.954 1085.47 415.273 1085.48 416.588 1085.41ZM508.917 1064.45C508.588 1063.48 507.978 1062.64 507.165 1062.02C506.352 1061.41 505.374 1061.05 504.356 1061C500.83 1061 497.534 1065.33 494.736 1069.35H494.467C491.746 1067.44 490.903 1067.44 488.374 1070.12C485.001 1073.76 486.419 1074.41 490.788 1077.78C487.837 1081.88 480.402 1092.46 479.29 1094.38C478.179 1096.3 474.921 1101.7 478.524 1104.69C479.263 1105.22 480.158 1105.49 481.067 1105.45C481.976 1105.42 482.847 1105.08 483.544 1104.5C489.111 1097.75 494.232 1090.64 498.875 1083.23C502.708 1085.53 503.014 1085.99 506.004 1083.53C506.438 1083.25 506.801 1082.87 507.067 1082.43C507.332 1081.98 507.493 1081.48 507.537 1080.96C507.537 1079.09 505.276 1077.78 503.704 1076.52C505.046 1074.56 506.234 1072.69 507.307 1070.73C508.019 1069.87 508.531 1068.85 508.81 1067.77C509.088 1066.68 509.124 1065.55 508.917 1064.45ZM496.805 1070.77C498.074 1069.05 499.43 1067.4 500.868 1065.83C502.746 1063.79 504.126 1063.3 505.391 1064.18C507.537 1065.6 506.349 1066.86 501.941 1074.87L496.805 1070.77ZM480.517 1102.73C478.332 1102.24 479.75 1098.9 480.785 1096.91C481.82 1094.92 489.6 1083.65 492.59 1079.09C493.778 1079.93 495.771 1081.23 496.729 1081.81C494.123 1086.25 486.726 1097.14 485.231 1098.82C483.736 1100.51 482.356 1103.16 480.517 1102.73ZM491.44 1070.23L492.053 1070.46C492.666 1070.69 505.161 1080.89 505.161 1081.12C504.603 1081.94 503.87 1082.64 503.014 1083.15C501.558 1082 492.513 1075.87 489.14 1073.22C489.843 1072.18 490.611 1071.18 491.44 1070.23ZM575.988 1089.36C575.988 1089.36 593.388 1108.02 594.921 1108.52C597.489 1109.21 611.363 1093.19 613.203 1091.04C615.004 1092.58 615.924 1092.85 617.956 1090.81C619.212 1089.5 620.259 1088 621.06 1086.37C621.194 1086.12 621.244 1085.83 621.203 1085.55C621.161 1085.26 621.031 1085 620.83 1084.8C601.322 1065.02 597.834 1061.34 597.029 1061.03C594.5 1059.96 593.197 1063.07 591.702 1064.18C589.632 1066.17 588.521 1066.78 591.932 1070.62C576.371 1087.48 575.145 1087.37 575.988 1089.36ZM592.392 1066.86C593.413 1065.68 594.556 1064.62 595.803 1063.68C595.803 1063.68 607.301 1075.18 618.186 1085.91C617.49 1087.21 616.64 1088.42 615.656 1089.51C615.234 1089.09 593.005 1067.51 592.238 1066.86H592.392ZM611.555 1089.28C594.845 1106.99 596.531 1106.3 594.768 1104.61C593.733 1103.73 580.894 1090.51 578.939 1088.25C580.319 1086.71 593.043 1072.92 593.887 1072.15C593.695 1072.3 608.796 1086.91 611.402 1089.28H611.555Z" fill="black"/>
<path d="M591.326 1081.19C587.493 1085.26 584.503 1086.45 584.925 1088.63C586.797 1091.4 588.955 1093.97 591.364 1096.3C591.511 1096.42 591.694 1096.48 591.884 1096.48C592.073 1096.49 592.258 1096.43 592.409 1096.31C592.56 1096.2 592.667 1096.03 592.714 1095.85C592.761 1095.67 592.744 1095.47 592.667 1095.3C592.667 1095.3 589.639 1090.12 588.336 1088.4C588.643 1088.02 591.9 1083.65 592.782 1082.65C592.975 1082.46 593.084 1082.2 593.084 1081.92C593.084 1081.65 592.975 1081.39 592.782 1081.19C592.589 1081 592.327 1080.89 592.054 1080.89C591.781 1080.89 591.519 1081 591.326 1081.19Z" fill="black"/>
<path d="M647.892 1128.22L553.916 1127.61C553.916 1121.05 551.808 1066.63 551.654 1061.99C551.654 1060.58 549.393 1060.58 549.47 1061.99C549.47 1065.83 550.85 1124.01 551.041 1127.57H448.748C448.748 1121.36 447.751 1072.65 447.675 1069.31C447.675 1069.04 447.566 1068.78 447.371 1068.58C447.177 1068.39 446.914 1068.28 446.64 1068.28C446.365 1068.28 446.102 1068.39 445.908 1068.58C445.714 1068.78 445.605 1069.04 445.605 1069.31V1127.57C437.633 1127.57 353.621 1127.57 342.123 1128.41C341.878 1128.46 341.657 1128.59 341.498 1128.78C341.339 1128.98 341.252 1129.22 341.252 1129.47C341.252 1129.72 341.339 1129.96 341.498 1130.15C341.657 1130.34 341.878 1130.47 342.123 1130.52C352.357 1130.98 638.694 1131.52 648.084 1129.33C648.208 1129.29 648.312 1129.2 648.378 1129.08C648.444 1128.96 648.467 1128.83 648.445 1128.7C648.422 1128.57 648.355 1128.45 648.254 1128.36C648.153 1128.27 648.025 1128.22 647.892 1128.22ZM372.248 436.658C373.129 438.191 382.098 438.689 382.903 438.382C383.432 438.197 383.888 437.848 384.206 437.386C387.246 439.922 390.433 442.276 393.749 444.438C394.222 444.82 394.77 445.1 395.358 445.258C395.945 445.416 396.559 445.45 397.16 445.358C398.77 444.898 429.01 426.884 429.469 426.578C431.462 425.351 431.501 424.125 431.232 423.32C430.658 421.749 399.766 407.261 394.822 401.857C394.679 401.753 394.517 401.679 394.345 401.638C394.173 401.598 393.994 401.591 393.82 401.62C393.645 401.648 393.478 401.711 393.328 401.804C393.177 401.898 393.047 402.02 392.944 402.164C389.112 406.571 385.701 411.094 382.213 415.578C378.701 415.47 375.192 415.857 371.788 416.728C371.412 423.373 371.566 430.037 372.248 436.658ZM398.578 425.16C398.187 426.23 397.444 427.136 396.47 427.728C394.554 428.379 392.638 426.578 391.986 425.773C389.878 423.32 394.669 418.108 397.85 422.209C398.247 422.624 398.525 423.138 398.653 423.699C398.781 424.259 398.756 424.843 398.578 425.39V425.16ZM395.819 418.069C394.672 417.868 393.491 417.989 392.409 418.419C391.327 418.849 390.385 419.572 389.69 420.506C388.994 421.44 388.572 422.549 388.47 423.709C388.368 424.869 388.59 426.035 389.112 427.076C389.894 428.363 391.038 429.391 392.402 430.032C393.765 430.673 395.287 430.898 396.777 430.679C397.806 430.303 398.721 429.669 399.432 428.836C400.144 428.003 400.629 427.001 400.84 425.926C405.055 425.926 419.543 425.926 425.33 425.658L396.777 442.292C395.167 441.602 385.739 434.626 384.589 433.706C384.589 431.599 384.589 418.989 384.321 416.958C387.54 413.125 390.836 409.024 393.979 404.923C398.655 408.756 420.233 420.254 426.557 423.588H400.955C400.788 422.269 400.197 421.04 399.27 420.086C398.344 419.132 397.133 418.505 395.819 418.299V418.069ZM374.356 418.759L381.446 418.491C381.446 419.679 381.906 433.821 381.715 435.814C379.295 435.974 376.865 435.858 374.471 435.47C374.701 432.825 374.509 421.979 374.356 418.989V418.759ZM254.356 620.242C254.758 620.474 255.214 620.596 255.678 620.596C256.142 620.596 256.598 620.474 257 620.242C260.028 618.747 266.045 613.496 283.599 601.883C284.114 601.603 284.558 601.209 284.897 600.731C285.236 600.252 285.46 599.703 285.553 599.124C285.553 599.124 286.205 582.758 285.285 582.222C282.334 580.382 273.787 574.557 271.334 574.94C271.028 574.94 238.68 595.1 238.603 596.058C238.283 600.24 238.219 604.438 238.412 608.629C243.468 612.843 248.794 616.722 254.356 620.242ZM240.75 598.702C243.701 600.695 251.941 606.368 254.202 607.517V616.256C239.868 606.674 240.788 608.284 240.903 605.448C240.941 603.876 240.826 600.197 240.75 598.702ZM255.774 604.336C255.53 604.517 255.234 604.614 254.93 604.614C254.627 604.614 254.331 604.517 254.087 604.336C253.474 603.953 244.889 597.821 242.589 596.173C272.714 577.009 271.641 576.779 273.251 577.354C274.017 577.661 277.62 579.961 282.487 583.18C276.738 588.086 256.349 603.953 255.774 604.336ZM282.602 599.239C281.797 600.005 261.063 613.765 256.464 616.754V607.172C259.185 605.103 277.16 590.999 282.756 586.208C282.909 598.856 283.139 598.856 282.794 599.239H282.602ZM679.167 622.58C686.324 622.413 693.288 620.22 699.25 616.256C702.224 614.382 704.464 611.543 705.594 608.215C706.724 604.887 706.676 601.271 705.459 597.974C707.988 596.058 716.075 589.197 717.647 587.703C720.904 587.894 724.699 582.107 726.73 578.964C727.573 577.661 728.685 576.32 728.11 574.825C722.936 569.349 717.459 564.166 711.706 559.303C711.321 558.896 710.822 558.616 710.274 558.499C709.727 558.383 709.157 558.436 708.64 558.651C704.823 562.352 701.383 566.421 698.368 570.801C698.236 571.368 698.304 571.964 698.56 572.487C698.56 572.755 693.233 588.201 692.581 590.079C689.713 590.368 687.049 591.698 685.094 593.816C683.138 595.934 682.025 598.694 681.965 601.577C681.505 612.768 690.358 616.371 678.822 620.51C678.662 620.647 678.54 620.824 678.468 621.022C678.396 621.22 678.377 621.434 678.411 621.642C678.446 621.85 678.534 622.046 678.666 622.21C678.798 622.374 678.971 622.502 679.167 622.58ZM701.32 571.49C703.81 567.832 706.745 564.498 710.058 561.564C712.128 563.212 724.086 574.25 725.389 576.051C724.43 577.699 719.065 584.675 717.723 584.828C717.608 584.713 701.818 571.95 701.32 571.49ZM704.079 595.483C702.125 592.619 699.125 590.637 695.724 589.964C696.49 587.396 699.288 578.006 700.246 574.212C703.159 576.703 710.365 582.758 714.772 586.246C713.047 587.971 706.532 593.528 704.079 595.483ZM685.299 619.552C688.289 616.831 687.56 613.266 686.181 609.855C683.728 602.19 684.456 597.246 688.557 594.525C689.615 593.853 690.797 593.4 692.033 593.19C693.269 592.981 694.534 593.02 695.754 593.306C696.975 593.591 698.126 594.117 699.141 594.853C700.156 595.589 701.014 596.52 701.665 597.591C707.72 607.134 696.375 617.367 685.299 619.552ZM439.549 425.16C441.121 425.16 450.319 423.972 458.713 423.09C459.007 423.09 459.29 422.973 459.499 422.765C459.707 422.556 459.824 422.273 459.824 421.979C459.824 421.684 459.707 421.401 459.499 421.193C459.29 420.984 459.007 420.867 458.713 420.867C455.57 421.174 440.814 422.055 439.204 422.4C438.893 422.504 438.628 422.712 438.453 422.989C438.279 423.267 438.205 423.596 438.246 423.921C438.287 424.247 438.439 424.548 438.676 424.773C438.914 424.999 439.222 425.136 439.549 425.16ZM469.597 422.707C470.632 422.707 490.984 421.02 495.468 421.25C496.963 421.25 497.077 419.066 495.468 418.951C486.708 418.524 477.928 418.806 469.214 419.794C468.883 419.903 468.6 420.123 468.415 420.418C468.229 420.713 468.152 421.064 468.198 421.409C468.243 421.755 468.408 422.074 468.664 422.31C468.919 422.547 469.249 422.688 469.597 422.707ZM507.004 420.522L523.523 420.062C523.797 420.012 524.044 419.868 524.222 419.655C524.401 419.441 524.498 419.172 524.498 418.893C524.498 418.615 524.401 418.346 524.222 418.132C524.044 417.918 523.797 417.774 523.523 417.724L507.081 417.264C506.69 417.314 506.33 417.503 506.066 417.796C505.802 418.089 505.652 418.466 505.642 418.86C505.633 419.254 505.765 419.639 506.015 419.944C506.265 420.249 506.616 420.454 507.004 420.522ZM536.669 421.059C543.721 421.059 569.17 422.247 575.379 423.32C576.912 423.627 577.448 421.25 575.915 420.982C562.913 419.005 549.782 418.006 536.63 417.993C536.224 417.998 535.836 418.164 535.552 418.455C535.268 418.746 535.111 419.138 535.117 419.545C535.122 419.951 535.288 420.339 535.579 420.623C535.87 420.907 536.262 421.064 536.669 421.059ZM587.758 427.689C597.905 430.69 607.28 435.855 615.238 442.828C616.465 443.94 618.189 442.138 617.001 441.027C608.962 433.326 599.179 427.684 588.486 424.585C588.099 424.549 587.713 424.654 587.397 424.881C587.082 425.108 586.86 425.442 586.771 425.82C586.682 426.198 586.733 426.596 586.915 426.939C587.096 427.283 587.396 427.549 587.758 427.689ZM621.754 478.817C621.436 478.894 621.158 479.085 620.971 479.354C620.784 479.622 620.702 479.95 620.739 480.274C620.777 480.599 620.932 480.899 621.175 481.118C621.419 481.336 621.733 481.459 622.06 481.461C627.119 481.461 633.06 475.559 633.558 467.396C634.057 459.232 628.461 452.678 623.095 447.197C622.866 446.964 622.554 446.83 622.227 446.827C621.9 446.823 621.585 446.95 621.351 447.178C621.117 447.407 620.984 447.719 620.98 448.046C620.977 448.373 621.103 448.688 621.332 448.922C627.388 455.208 630.339 460.957 630.377 466.552C630.479 469.258 629.691 471.923 628.133 474.139C626.576 476.354 624.335 477.997 621.754 478.817ZM579.939 491.273C583.772 491.273 609.029 485.486 613.207 484.489C613.499 484.393 613.745 484.19 613.895 483.92C614.044 483.651 614.087 483.335 614.015 483.036C613.942 482.737 613.76 482.475 613.504 482.304C613.247 482.133 612.936 482.065 612.632 482.113C606.921 483.416 586.762 486.942 579.671 488.169C579.299 488.251 578.969 488.465 578.743 488.772C578.517 489.08 578.411 489.459 578.444 489.838C578.476 490.218 578.646 490.573 578.921 490.837C579.197 491.101 579.559 491.256 579.939 491.273ZM569.553 488.743C561.389 489.625 552.843 490.391 544.602 491.618C544.256 491.722 543.956 491.942 543.753 492.241C543.55 492.54 543.456 492.9 543.488 493.26C543.519 493.62 543.674 493.959 543.926 494.218C544.178 494.477 544.512 494.642 544.871 494.684C547.209 494.684 565.912 492.231 569.668 491.771C571.623 491.503 571.508 488.475 569.553 488.743ZM511.757 498.555C513.979 498.555 529.31 496.064 532.874 495.566C533.173 495.49 533.435 495.308 533.609 495.054C533.783 494.8 533.858 494.491 533.821 494.185C533.783 493.879 533.635 493.597 533.404 493.392C533.174 493.188 532.876 493.075 532.568 493.074C527.892 493.611 516.049 494.646 511.45 495.451C511.075 495.534 510.745 495.752 510.52 496.063C510.295 496.374 510.191 496.757 510.229 497.138C510.267 497.52 510.443 497.875 510.724 498.136C511.006 498.397 511.373 498.546 511.757 498.555ZM447.79 504.074C455.991 504.074 464.385 502.618 472.51 501.851C474.197 501.851 474.197 499.053 472.51 499.207C464.347 499.858 455.8 500.203 447.56 501.353C445.912 501.544 446.103 504.074 447.79 504.074ZM407.393 507.6C407.057 507.68 406.761 507.88 406.562 508.162C406.362 508.445 406.273 508.791 406.311 509.134C406.348 509.478 406.51 509.796 406.766 510.029C407.022 510.262 407.354 510.393 407.7 510.398C410.306 510.398 431.347 507.293 434.529 506.872C434.864 506.793 435.157 506.592 435.351 506.308C435.546 506.024 435.627 505.677 435.579 505.336C435.531 504.996 435.357 504.685 435.092 504.466C434.827 504.246 434.489 504.134 434.145 504.151C429.125 504.764 411.648 506.719 407.393 507.6ZM349.022 518.561C363.896 515.44 378.93 513.137 394.056 511.663C396.049 511.663 395.972 508.405 394.056 508.597C378.741 509.509 363.547 511.87 348.677 515.649C348.348 515.755 348.065 515.973 347.878 516.264C347.691 516.556 347.611 516.903 347.652 517.247C347.693 517.591 347.852 517.91 348.101 518.15C348.351 518.389 348.677 518.535 349.022 518.561ZM297.741 538.338C307.962 532.214 319.125 527.824 330.779 525.345C332.81 524.924 332.005 521.858 330.012 522.279C318.011 524.662 306.511 529.096 296.016 535.387C295.688 535.644 295.463 536.011 295.385 536.421C295.306 536.831 295.379 537.255 295.59 537.616C295.8 537.976 296.134 538.248 296.53 538.381C296.926 538.513 297.356 538.498 297.741 538.338ZM265.355 569.152C269.586 557.759 277.739 548.247 288.351 542.324C289.769 541.557 288.581 539.449 287.125 540.178C275.57 545.921 266.694 555.924 262.366 568.079C261.638 570.226 264.627 571.069 265.355 569.152ZM273.71 614.991C272.561 613.688 270.721 615.489 271.794 616.754C274.477 619.858 288.619 630.743 291.494 630.743C291.796 630.741 292.088 630.639 292.327 630.455C292.565 630.27 292.737 630.013 292.815 629.721C292.893 629.43 292.874 629.121 292.76 628.842C292.646 628.563 292.444 628.329 292.184 628.175C285.683 624.283 279.505 619.874 273.71 614.991ZM327.138 639.558C318.486 638.703 310.019 636.519 302.034 633.081C300.271 632.315 298.814 634.921 300.616 635.764C308.914 639.695 317.866 642.06 327.023 642.739C329.131 642.854 329.131 639.788 327.138 639.558ZM335.455 644.809C339.9 645.461 358.029 648.412 362.628 648.642C363.009 648.653 363.38 648.522 363.67 648.274C363.96 648.027 364.147 647.68 364.195 647.302C364.242 646.924 364.148 646.541 363.929 646.229C363.71 645.917 363.383 645.698 363.011 645.614C358.604 644.694 340.629 642.548 336.183 641.781C334.381 641.743 333.653 644.502 335.455 644.809ZM394.516 649.485C387.081 650.145 379.587 649.523 372.363 647.645C372.062 647.611 371.759 647.686 371.509 647.856C371.259 648.026 371.078 648.28 370.999 648.572C370.92 648.865 370.949 649.175 371.08 649.448C371.21 649.721 371.434 649.938 371.711 650.06C379.17 652.233 386.964 653.026 394.707 652.398C396.432 652.206 396.394 649.37 394.516 649.485ZM649.234 630.667C657.222 629.791 665.096 628.083 672.728 625.569C674.338 625.033 673.648 622.503 672 623.001C664.555 625.165 656.918 626.603 649.195 627.294C646.973 627.524 647.011 630.858 649.234 630.667ZM613.667 633.579C613.358 633.678 613.092 633.88 612.914 634.15C612.736 634.421 612.655 634.745 612.687 635.067C612.718 635.39 612.859 635.692 613.086 635.924C613.313 636.155 613.613 636.302 613.935 636.339C616.733 636.339 635.858 632.966 639.116 632.506C640.994 632.161 640.265 629.44 638.464 629.708C628.576 631.126 621.217 632.123 613.667 633.579ZM603.74 634.767C594.197 636.454 584.577 637.45 575.455 638.332C573.462 638.562 573.539 641.628 575.455 641.475C585.11 640.697 594.717 639.418 604.238 637.642C604.427 637.609 604.608 637.54 604.769 637.437C604.931 637.335 605.071 637.201 605.182 637.045C605.292 636.888 605.371 636.711 605.413 636.525C605.455 636.338 605.459 636.144 605.427 635.956C605.394 635.767 605.324 635.586 605.222 635.425C605.119 635.263 604.986 635.123 604.829 635.012C604.673 634.902 604.496 634.824 604.309 634.782C604.122 634.74 603.929 634.735 603.74 634.767ZM323.727 771.363C325.413 771.363 325.49 768.987 323.727 768.757C315.951 767.599 308.046 767.599 300.271 768.757C299.902 768.838 299.578 769.055 299.364 769.365C299.149 769.675 299.059 770.055 299.112 770.428C299.166 770.801 299.358 771.141 299.651 771.378C299.944 771.616 300.316 771.733 300.692 771.708C308.345 770.91 316.053 770.794 323.727 771.363ZM664.028 769.332C663.71 769.432 663.435 769.638 663.251 769.916C663.066 770.194 662.983 770.527 663.014 770.859C663.046 771.191 663.19 771.502 663.423 771.74C663.657 771.979 663.965 772.13 664.296 772.168C664.679 772.168 684.877 771.593 689.745 772.168C691.048 772.36 691.47 770.367 690.167 770.175C681.493 769.163 672.749 768.88 664.028 769.332ZM653.565 772.36C653.87 772.36 654.162 772.239 654.378 772.023C654.593 771.807 654.715 771.515 654.715 771.21C654.715 770.905 654.593 770.613 654.378 770.397C654.162 770.181 653.87 770.06 653.565 770.06C647.916 769.694 642.243 770.093 636.701 771.248C635.053 771.593 635.513 774.008 637.084 774.008C642.49 772.789 648.025 772.236 653.565 772.36ZM740.796 819.923C740.489 821.456 742.712 822.414 743.364 820.919C746.66 813.484 748.308 802.101 744.169 794.091C743.364 792.558 741.064 793.861 741.831 795.394C746.468 804.592 742.022 813.982 740.796 819.923ZM277.965 934.903C272.572 939.383 268.062 944.829 264.665 950.961C264.59 951.087 264.54 951.227 264.518 951.372C264.497 951.517 264.504 951.665 264.54 951.807C264.611 952.095 264.795 952.342 265.049 952.494C265.303 952.647 265.607 952.692 265.895 952.62C266.182 952.548 266.429 952.365 266.582 952.111C270.088 946.332 274.576 941.209 279.843 936.972C281.376 935.861 279.498 933.868 277.965 934.903ZM303.567 912.405C298.315 916.334 293.323 920.597 288.619 925.168C288.391 925.401 288.264 925.717 288.268 926.044C288.271 926.371 288.405 926.683 288.639 926.911C288.872 927.14 289.188 927.267 289.515 927.263C289.842 927.259 290.154 927.126 290.383 926.892C292.529 924.631 304.065 915.624 305.215 914.666C306.365 913.708 304.985 911.907 303.567 912.405ZM315.065 905.429C315.87 905.429 313.493 906.196 327.789 896.768C328.087 896.561 328.298 896.251 328.38 895.898C328.461 895.545 328.408 895.174 328.231 894.858C328.054 894.541 327.765 894.303 327.421 894.188C327.077 894.074 326.703 894.091 326.371 894.238C322.147 897.117 318.115 900.266 314.298 903.666C314.17 903.819 314.086 904.005 314.057 904.203C314.028 904.4 314.055 904.602 314.135 904.786C314.215 904.969 314.344 905.126 314.508 905.24C314.672 905.354 314.865 905.419 315.065 905.429Z" fill="black"/>
<path d="M334.648 890.252C335.645 890.673 334.993 890.252 347.066 882.586C346.289 892.211 346.43 901.887 347.487 911.485C341.508 908.235 335.769 904.559 330.317 900.485C329.282 899.68 327.903 901.136 328.976 902.018C334.932 907.121 341.347 911.663 348.139 915.586C353.162 953.739 372.628 988.513 402.524 1012.74C388.803 1015.96 380.142 1017.76 376.769 1018.11C375.313 1018.11 375.313 1020.49 376.769 1020.49C380.103 1020.49 401.336 1016.35 405.82 1015.43C460.857 1059.23 533.218 1054.94 585.955 1014.58C596.513 1017.37 607.242 1019.47 618.073 1020.87C618.409 1020.84 618.726 1020.7 618.97 1020.47C619.213 1020.24 619.369 1019.93 619.41 1019.59C619.45 1019.26 619.374 1018.92 619.193 1018.63C619.012 1018.35 618.738 1018.14 618.418 1018.03C613.665 1017.23 600.328 1014.7 588.83 1012.32C617.664 989.485 636.881 956.661 642.678 920.338C644.135 919.418 645.553 918.422 646.933 917.387C648.312 916.352 646.933 913.938 645.438 914.896L643.253 916.237C647.929 875.534 633.595 834.985 608.261 804.515C615.467 796.582 620.487 787.192 617.536 776.767C621.168 775.66 624.868 774.789 628.613 774.161C630.299 773.931 629.686 771.44 628.076 771.669C624.194 772.166 620.352 772.934 616.578 773.969C613.778 767.028 608.971 761.081 602.771 756.889C596.571 752.697 589.262 750.45 581.778 750.437C587.9 744 592.392 736.191 594.88 727.663C597.367 719.135 597.776 710.136 596.073 701.417C588.983 668.839 563.649 637.872 531.761 620.05C532.542 615.737 532.306 611.301 531.072 607.095C530.228 603.263 527.699 601.96 524.748 600.043C523.215 599.047 521.758 598.127 520.149 597.207C524.378 590.627 526.589 582.953 526.511 575.131C535.134 574.288 535.441 561.717 525.974 559.8C535.594 514.652 452.081 506.986 456.986 561.257C455.285 561.742 453.761 562.71 452.598 564.043C451.435 565.376 450.683 567.018 450.433 568.769C450.206 569.969 450.278 571.207 450.643 572.373C451.009 573.539 451.656 574.597 452.527 575.454C453.399 576.31 454.468 576.938 455.64 577.283C456.812 577.628 458.051 577.679 459.248 577.431C458.896 582.393 459.931 587.356 462.237 591.765C460.32 592.206 458.534 593.096 457.029 594.362C455.523 595.628 454.339 597.234 453.575 599.047C451.876 603.884 451.545 609.096 452.617 614.109C422.147 628.01 397.786 652.535 384.089 683.097C373.243 707.817 378.532 725.908 397.695 744.764C389.113 741.997 379.838 742.281 371.442 745.569C366.176 747.834 361.466 751.219 357.641 755.488C353.815 759.757 350.965 764.808 349.289 770.29C345.602 769.7 341.859 769.546 338.136 769.83C337.881 769.878 337.651 770.013 337.486 770.213C337.32 770.412 337.23 770.663 337.23 770.922C337.23 771.181 337.32 771.432 337.486 771.632C337.651 771.831 337.881 771.966 338.136 772.014C341.667 771.864 345.199 772.278 348.599 773.241C345.954 789.376 359.637 803.021 372.936 812.602C358.663 831.994 349.873 854.87 347.487 878.83C342.99 881.571 338.652 884.566 334.495 887.799C334.276 887.928 334.097 888.116 333.978 888.341C333.859 888.565 333.805 888.818 333.821 889.072C333.836 889.326 333.922 889.57 334.068 889.779C334.214 889.987 334.415 890.15 334.648 890.252ZM504.09 607.594L505.699 607.095C506.581 608.015 508.957 610.085 510.414 611.311C499.031 617.29 484.926 616.792 470.209 609.625C471.857 608.13 474.54 605.409 475.536 604.259C478.172 605.268 480.858 606.138 483.585 606.865C484.704 608.524 486.199 609.895 487.949 610.865C489.698 611.836 491.653 612.378 493.652 612.449C495.651 612.52 497.639 612.118 499.453 611.274C501.267 610.43 502.856 609.169 504.09 607.594ZM473.428 603.186C472.125 604.642 469.213 607.747 468.254 608.552C467.181 607.964 466.108 607.351 465.035 606.712C464.827 606.585 464.576 606.546 464.339 606.603C464.102 606.661 463.897 606.81 463.77 607.019C463.643 607.227 463.604 607.477 463.662 607.715C463.719 607.952 463.868 608.156 464.077 608.283C473.39 614.262 482.474 618.785 493.473 618.785C497.929 618.996 502.377 618.208 506.488 616.477C510.6 614.746 514.272 612.116 517.236 608.782C517.393 608.619 517.48 608.401 517.476 608.174C517.473 607.948 517.379 607.732 517.217 607.574C517.054 607.417 516.835 607.33 516.609 607.334C516.383 607.338 516.167 607.431 516.009 607.594C514.972 608.45 513.884 609.243 512.752 609.97C511.717 609.088 509.34 607.172 508.191 606.137C512.09 604.665 515.631 602.379 518.577 599.43C522.41 601.056 525.847 603.487 528.657 606.559C530.065 610.734 530.291 615.218 529.309 619.513C525.783 630.398 497.268 641.168 467.986 625.875C457.676 620.701 453.345 616.447 455.185 603.569C455.322 601.293 456.197 599.122 457.676 597.387C459.156 595.651 461.161 594.445 463.387 593.949C465.912 597.817 469.364 600.992 473.428 603.186ZM504.626 635.955C510.873 635.189 525.706 632.353 530.957 622.656C561.426 639.52 593.199 677.233 593.927 711.612C594.19 719.168 592.68 726.681 589.519 733.549C586.357 740.417 581.633 746.45 575.722 751.165C570.301 752.162 565.106 754.136 560.391 756.99C563.764 704.905 563.879 708.047 563.496 707.664C563.113 707.281 557.287 707.243 547.782 707.013C548.97 705.518 552.151 701.302 552.879 700.459C553.057 700.271 553.153 700.02 553.146 699.761C553.139 699.502 553.029 699.257 552.841 699.079C552.653 698.901 552.402 698.805 552.143 698.812C551.884 698.82 551.639 698.929 551.461 699.117C549.041 701.804 546.483 704.362 543.796 706.783H542.991C543.969 695.158 544.225 683.485 543.758 671.829C543.758 670.909 542.148 670.909 542.225 671.829C542.608 677.31 540.04 701.877 539.733 706.591C511.18 706.016 463.579 705.518 434.834 705.25C431.311 693.332 429.821 680.907 430.426 668.494C430.426 667.191 428.586 667.191 428.471 668.494C427.232 680.841 428.258 693.31 431.499 705.288H430.694C426.854 701.449 423.208 697.419 419.771 693.215C419.632 693.023 419.426 692.89 419.194 692.841C418.962 692.792 418.72 692.831 418.515 692.95C418.31 693.069 418.156 693.261 418.084 693.486C418.012 693.712 418.026 693.957 418.123 694.173C418.545 694.978 423.144 701.839 426.172 705.441H411.301C410.19 705.441 410.535 705.441 410.458 706.323C410.075 710.654 411.454 734.569 412.528 751.586C410.217 750.145 407.809 748.865 405.322 747.754C385.584 728.36 375.083 713.26 385.814 687.351C398.626 656.147 422.763 630.942 453.384 616.792C457.676 625.952 479.484 638.945 504.626 635.955ZM412.911 708.162C417.28 708.162 551.73 709.351 561.12 710.194C559.318 725.294 555.984 769.906 554.834 784.892H546.441C541.688 788.993 506.428 818.275 503.898 820.421C503.017 821.111 504.626 821.686 508.421 825.097C510.807 826.848 512.808 829.073 514.298 831.631C515.788 834.189 516.736 837.027 517.082 839.967C517.092 840.103 517.153 840.23 517.252 840.322C517.352 840.415 517.483 840.466 517.619 840.466C531.263 841.04 542.799 853.19 533.333 860.702C524.633 867.601 511.18 860.702 504.511 854.34C510.529 846.483 514.055 839.622 507.309 832.532C506.504 831.689 497.842 824.637 486.843 815.668C445.182 781.673 448.516 783.589 447.98 783.589C445.833 783.589 423.067 782.018 418.966 781.788C415.939 757.259 413.716 721.423 412.911 708.162ZM453 859.322C447.366 859.744 437.9 860.472 433.837 854.761C431.193 850.929 435.14 846.445 439.395 845.218C448.708 848.591 463.349 853.305 468.101 854.8C463.373 857.183 458.261 858.714 453 859.322ZM433.071 858.556C436.903 862.388 443.419 862.848 448.631 862.772C457.136 862.73 465.478 860.442 472.815 856.141C481.209 858.594 489.526 860.702 498.187 862.542C498.291 862.577 498.403 862.578 498.507 862.543C498.611 862.509 498.701 862.441 498.762 862.35C500.219 860.549 501.637 858.517 502.94 856.793C511.755 864.995 526.472 870.399 535.517 863.423C542.186 858.249 541.151 849.396 534.483 843.915C566.217 834.602 591.474 821.226 605.655 807.16C618.89 822.335 628.685 840.195 634.368 859.512C640.051 878.83 641.487 899.148 638.577 919.073C630.481 924.37 622.101 929.219 613.474 933.599C613.265 933.706 613.1 933.881 613.004 934.094C612.907 934.308 612.887 934.548 612.944 934.775C613.002 935.002 613.135 935.202 613.322 935.344C613.509 935.485 613.738 935.559 613.972 935.554C614.47 935.554 629.801 928.157 637.888 923.366C631.269 958 612.682 989.203 585.38 1011.52C579.21 1010.21 573.882 1008.99 571.353 1008.22C569.973 1007.76 569.36 1009.83 570.701 1010.33C573.039 1011.17 577.408 1012.36 582.621 1013.7C557.899 1032.54 527.704 1042.79 496.623 1042.9C465.542 1043.01 435.275 1032.98 410.42 1014.31C415.013 1013.35 419.534 1012.07 423.949 1010.48C425.635 1009.75 424.6 1007.26 422.876 1007.65L406.932 1011.48C377.721 988.033 358.148 954.669 351.933 917.732L352.7 918.077C354.463 918.843 355.843 916.429 354.195 915.471L351.358 913.823C346.29 878.841 354.822 843.248 375.198 814.365C394.284 826.576 414.737 836.507 436.137 843.953C430.081 847.019 428.05 853.612 433.071 858.556ZM524.518 574.135C523.713 581.8 522.563 589.465 517.811 595.367C515.204 598.625 509.647 603.454 505.086 603.569C502.058 603.569 500.985 601.806 499.031 599.737C496.463 596.747 495.198 595.176 493.818 595.406C490.752 595.789 491.289 601.576 486.383 604.451C484.888 605.294 479.676 603.799 475.69 601.883C471.017 599.565 467.166 595.874 464.651 591.305C462.137 586.735 461.081 581.506 461.624 576.319C461.624 575.399 460.282 574.824 459.746 575.093C458.913 575.381 458.02 575.451 457.152 575.298C456.284 575.144 455.47 574.771 454.787 574.214C454.103 573.658 453.574 572.936 453.248 572.117C452.922 571.298 452.81 570.409 452.924 569.535C454.38 561.87 462.965 563.786 465.227 568.232C465.302 568.344 465.415 568.426 465.545 568.464C465.675 568.501 465.814 568.492 465.937 568.437C466.061 568.382 466.161 568.285 466.22 568.164C466.279 568.042 466.294 567.904 466.261 567.772C464.717 563.743 464.525 559.321 465.714 555.173C466.903 551.025 469.409 547.376 472.854 544.776C478.328 548.578 484.834 550.615 491.499 550.615C498.165 550.615 504.67 548.578 510.145 544.776C517.542 550.525 517.811 562.483 517.274 566.661C517.268 566.762 517.286 566.863 517.326 566.956C517.365 567.049 517.427 567.132 517.504 567.197C518.156 567.696 519.229 566.393 519.765 565.779C520.454 564.709 521.444 563.866 522.609 563.355C523.775 562.844 525.065 562.687 526.319 562.905C527.572 563.088 528.714 563.724 529.529 564.692C530.344 565.661 530.776 566.894 530.743 568.16C530.71 569.425 530.214 570.635 529.35 571.559C528.485 572.484 527.311 573.059 526.051 573.176C525.783 572.946 524.594 573.33 524.518 574.135Z" fill="black"/>
<path d="M469.596 994.5C469.979 995.42 469.596 994.998 469.596 994.5C458.769 998.88 447.571 1002.28 436.137 1004.66C434.757 1004.92 435.217 1006.96 436.597 1006.8C448.436 1005.47 459.974 1002.19 470.746 997.106C472.317 996.225 471.282 993.887 469.596 994.5ZM523.253 978.211C524.173 978.211 555.217 966.023 558.245 964.069C559.74 963.072 558.705 960.504 556.942 961.156C553.838 962.306 529.155 973.957 522.985 976.142C522.76 976.228 522.57 976.387 522.446 976.594C522.323 976.801 522.272 977.043 522.303 977.282C522.334 977.521 522.445 977.743 522.617 977.911C522.789 978.08 523.013 978.186 523.253 978.211ZM570.701 957.898C571.698 957.898 597.53 946.132 599.945 944.292C601.133 943.372 600.328 941.188 598.756 941.801C596.418 942.683 575.224 953.299 570.356 955.33C570.084 955.444 569.857 955.645 569.71 955.901C569.563 956.157 569.505 956.454 569.544 956.747C569.584 957.039 569.718 957.31 569.928 957.519C570.137 957.727 570.409 957.86 570.701 957.898ZM645.898 880.862C648.044 882.242 656.016 888.527 658.163 889.907C658.491 890.097 658.876 890.162 659.249 890.09C659.621 890.018 659.955 889.813 660.188 889.514C660.422 889.216 660.539 888.842 660.519 888.464C660.499 888.085 660.343 887.727 660.079 887.454C658.048 885.729 649.271 880.249 647.086 878.946C646.832 878.788 646.526 878.738 646.235 878.806C645.944 878.874 645.691 879.056 645.534 879.31C645.376 879.564 645.326 879.87 645.395 880.161C645.463 880.452 645.644 880.704 645.898 880.862ZM693.998 912.673C692.81 911.715 691.2 913.439 692.426 914.436C695.148 916.697 705.956 926.279 708.945 928.31C709.262 928.467 709.624 928.509 709.969 928.43C710.313 928.35 710.62 928.154 710.837 927.874C711.053 927.595 711.166 927.249 711.157 926.895C711.148 926.541 711.016 926.202 710.785 925.934C708.332 923.404 697.179 915.202 693.998 912.673ZM718.718 934.672C718.49 934.449 718.182 934.325 717.862 934.329C717.542 934.332 717.237 934.463 717.013 934.692C716.789 934.92 716.666 935.228 716.669 935.548C716.673 935.868 716.803 936.173 717.032 936.397C721.845 941.266 726.171 946.593 729.948 952.303C731.175 954.027 733.972 952.303 732.784 950.54C728.782 944.68 724.056 939.348 718.718 934.672ZM665.061 1023.05C659.926 1023.05 637.811 1021.6 632.369 1020.49C632.12 1020.42 631.857 1020.46 631.637 1020.6C631.418 1020.73 631.261 1020.95 631.2 1021.19C631.139 1021.44 631.179 1021.71 631.312 1021.93C631.445 1022.15 631.66 1022.3 631.909 1022.36C642.855 1024.42 653.934 1025.7 665.061 1026.2C665.478 1026.2 665.878 1026.03 666.172 1025.74C666.467 1025.44 666.633 1025.04 666.633 1024.62C666.633 1024.21 666.467 1023.81 666.172 1023.51C665.878 1023.22 665.478 1023.05 665.061 1023.05ZM528.082 995.497C526.741 994.845 525.629 996.838 527.009 997.528C536.664 1002.4 547.001 1005.79 557.67 1007.57C559.74 1007.95 560.545 1004.77 558.437 1004.43C547.952 1002.88 537.735 999.874 528.082 995.497ZM483.164 992.852C487.954 991.817 497.728 989.019 499.261 988.789C500.717 989.364 510.069 992.89 515.051 994.079C515.425 994.161 515.815 994.098 516.143 993.902C516.471 993.705 516.712 993.391 516.815 993.022C516.918 992.654 516.876 992.26 516.698 991.922C516.519 991.584 516.218 991.327 515.856 991.204C512.023 989.824 508.191 988.674 503.937 987.371C507.027 986.344 510.027 985.062 512.905 983.539C513.114 983.315 513.254 983.035 513.306 982.733C513.358 982.431 513.32 982.12 513.198 981.839C513.076 981.558 512.874 981.319 512.618 981.151C512.362 980.983 512.062 980.894 511.755 980.894C507.463 982.351 503.247 984.19 499.069 985.8C494.317 984.114 489.947 982.389 485.77 980.549C484.39 979.936 483.279 981.967 484.697 982.619C488.184 984.267 491.672 985.838 495.121 987.256C491.047 988.671 486.902 989.873 482.704 990.859C482.527 990.987 482.393 991.165 482.317 991.369C482.24 991.573 482.226 991.795 482.275 992.008C482.324 992.22 482.434 992.413 482.592 992.563C482.75 992.714 482.949 992.814 483.164 992.852ZM311.614 885.998C307.781 883.008 293.409 870.667 290.228 867.294C289.193 866.183 287.468 867.831 288.503 868.942C294.758 876.301 301.904 882.854 309.774 888.451C311.307 889.485 313.07 887.147 311.614 885.998ZM266.082 1067.36C263.69 1046.2 259.38 1025.3 253.204 1004.92C256.701 1010.21 262.092 1013.96 268.267 1015.39C268.531 1015.5 268.829 1015.5 269.095 1015.39C269.361 1015.29 269.573 1015.08 269.685 1014.81C269.797 1014.55 269.799 1014.25 269.691 1013.99C269.583 1013.72 269.374 1013.51 269.11 1013.4C264.204 1010.44 256.654 1007.45 254.316 1000.29C255.595 997.953 255.91 995.21 255.194 992.646C254.478 990.082 252.787 987.9 250.483 986.566C251.862 978.426 254.776 970.623 259.068 963.571C259.567 962.612 258.263 961.616 257.535 962.459C252.066 969.279 248.721 977.555 247.915 986.26C246.918 986.332 245.936 986.551 245.003 986.911C234.848 960.665 220.421 936.28 202.307 914.743C203.004 913.554 203.275 912.163 203.075 910.799C202.875 909.435 202.215 908.181 201.206 907.243C200.196 906.304 198.896 905.739 197.522 905.639C196.147 905.539 194.779 905.911 193.645 906.694C192.35 907.575 191.409 908.885 190.988 910.394C190.568 911.902 190.694 913.51 191.345 914.934C191.779 915.694 192.363 916.357 193.06 916.885C193.758 917.413 194.555 917.794 195.404 918.005C196.253 918.217 197.136 918.254 197.999 918.115C198.863 917.975 199.689 917.663 200.429 917.195C218.189 938.49 232.423 962.493 242.588 988.291C236.341 993.81 241.783 1004.16 249.64 1003.32C256.118 1024.41 260.634 1046.05 263.131 1067.97C261.981 1068.58 261.09 1069.59 260.621 1070.8C260.152 1072.01 260.137 1073.36 260.579 1074.58C261.02 1075.8 261.889 1076.83 263.025 1077.46C264.161 1078.1 265.488 1078.3 266.762 1078.04C268.036 1077.77 269.172 1077.06 269.961 1076.02C270.749 1074.99 271.138 1073.7 271.055 1072.4C270.973 1071.1 270.424 1069.88 269.511 1068.95C268.597 1068.03 267.38 1067.46 266.082 1067.36ZM200.237 911.906C200.372 912.412 200.388 912.941 200.286 913.454C200.183 913.966 199.964 914.448 199.646 914.863C199.327 915.278 198.918 915.613 198.449 915.844C197.98 916.075 197.464 916.196 196.941 916.196C196.418 916.196 195.902 916.075 195.433 915.844C194.964 915.613 194.555 915.278 194.236 914.863C193.918 914.448 193.699 913.966 193.596 913.454C193.494 912.941 193.51 912.412 193.645 911.906C193.51 911.401 193.494 910.872 193.596 910.359C193.699 909.847 193.918 909.364 194.236 908.95C194.555 908.535 194.964 908.199 195.433 907.968C195.902 907.737 196.418 907.617 196.941 907.617C197.464 907.617 197.98 907.737 198.449 907.968C198.918 908.199 199.327 908.535 199.646 908.95C199.964 909.364 200.183 909.847 200.286 910.359C200.388 910.872 200.372 911.401 200.237 911.906ZM269.225 1072.53C269.225 1076.37 262.901 1076.37 262.901 1072.53C262.901 1068.7 269.072 1069.05 269.072 1072.88L269.225 1072.53ZM252.438 997.413C250.368 1003.81 242.665 999.329 242.78 994.117C242.78 989.518 249.18 986.452 251.595 990.859C252.213 991.851 252.597 992.97 252.717 994.133C252.836 995.295 252.688 996.47 252.285 997.566L252.438 997.413ZM809.859 843.264C809.84 842.156 809.513 841.076 808.916 840.144C808.319 839.211 807.475 838.463 806.477 837.982C805.48 837.501 804.368 837.307 803.267 837.421C802.165 837.534 801.117 837.952 800.239 838.626C778.671 825.998 760.123 808.81 745.892 788.265C746.932 787.071 747.647 785.629 747.969 784.079C748.291 782.528 748.21 780.921 747.732 779.412C747.366 778.24 746.702 777.184 745.805 776.346C744.908 775.508 743.809 774.917 742.615 774.631C741.422 774.345 740.174 774.374 738.995 774.715C737.816 775.056 736.746 775.697 735.889 776.575C717.444 751.624 704.261 723.186 697.141 692.985C697.86 692.171 698.3 691.147 698.396 690.065C698.493 688.982 698.241 687.897 697.677 686.968C697.254 686.008 696.529 685.213 695.614 684.701C694.698 684.19 693.64 683.991 692.601 684.134C691.562 684.277 690.598 684.754 689.854 685.493C689.11 686.233 688.628 687.195 688.479 688.233C688.235 689.105 688.233 690.027 688.471 690.901C688.709 691.775 689.179 692.568 689.831 693.197C690.483 693.825 691.293 694.266 692.175 694.471C693.057 694.677 693.978 694.64 694.841 694.365C701.903 724.914 715.299 753.639 734.164 778.683C733.761 779.335 733.464 780.047 733.283 780.791C728.415 778.453 704.231 770.788 701.701 771.478C700.628 771.785 701.127 773.088 701.701 773.241C712.284 776.165 722.677 779.736 732.823 783.934C733.037 785.108 733.516 786.217 734.223 787.178C734.93 788.139 735.846 788.926 736.902 789.48C737.959 790.034 739.127 790.34 740.32 790.375C741.512 790.411 742.697 790.174 743.784 789.683C761.261 814.519 779.159 831.267 798.476 840.887C798.062 841.817 797.887 842.836 797.965 843.851C798.044 844.866 798.373 845.845 798.925 846.701C799.476 847.556 800.232 848.261 801.124 848.752C802.016 849.242 803.015 849.503 804.033 849.511C804.845 849.55 805.656 849.411 806.409 849.105C807.163 848.799 807.84 848.332 808.395 847.738C808.949 847.143 809.367 846.435 809.62 845.662C809.873 844.89 809.955 844.071 809.859 843.264ZM801.35 845.18C801.021 844.694 800.825 844.13 800.78 843.545C800.735 842.96 800.844 842.373 801.096 841.843C801.347 841.312 801.733 840.857 802.215 840.521C802.696 840.186 803.257 839.982 803.842 839.929C804.76 839.959 805.632 840.342 806.275 840.999C806.918 841.656 807.282 842.536 807.291 843.455C807.292 844.153 807.066 844.833 806.647 845.391C806.228 845.949 805.64 846.357 804.969 846.551C804.299 846.746 803.584 846.717 802.931 846.47C802.278 846.223 801.723 845.77 801.35 845.18ZM742.634 787.46C741.45 787.842 740.172 787.816 739.004 787.385C737.837 786.954 736.848 786.144 736.195 785.084C735.837 784.232 735.689 783.306 735.765 782.384C735.84 781.463 736.137 780.573 736.63 779.791C737.122 779.008 737.797 778.356 738.595 777.89C739.393 777.424 740.293 777.157 741.216 777.112C746.122 777.112 746.965 785.659 742.634 787.46ZM695.914 689.613C695.959 689.973 695.926 690.34 695.818 690.687C695.71 691.034 695.53 691.355 695.289 691.627C695.048 691.899 694.752 692.118 694.42 692.267C694.089 692.416 693.729 692.494 693.365 692.494C693.002 692.494 692.642 692.416 692.311 692.267C691.979 692.118 691.683 691.899 691.442 691.627C691.201 691.355 691.021 691.034 690.913 690.687C690.805 690.34 690.772 689.973 690.817 689.613C690.772 689.252 690.805 688.885 690.913 688.538C691.021 688.191 691.201 687.87 691.442 687.598C691.683 687.326 691.979 687.108 692.311 686.958C692.642 686.809 693.002 686.732 693.365 686.732C693.729 686.732 694.089 686.809 694.42 686.958C694.752 687.108 695.048 687.326 695.289 687.598C695.53 687.87 695.71 688.191 695.818 688.538C695.926 688.885 695.959 689.252 695.914 689.613ZM757.045 1001.48C757.151 1001.21 757.159 1000.91 757.068 1000.64C756.977 1000.36 756.792 1000.13 756.547 999.981C754.63 998.793 751.488 1000.79 750.951 1003.05C752.254 1003.16 756.24 1003.01 757.045 1001.48Z" fill="black"/>
<path d="M747.927 976.142C745.436 970.87 742.633 965.75 739.533 960.811C739.362 960.56 739.101 960.383 738.804 960.318C738.507 960.253 738.197 960.305 737.936 960.462C737.676 960.619 737.486 960.87 737.405 961.163C737.324 961.457 737.359 961.77 737.502 962.038C740.086 966.579 742.328 971.306 744.209 976.18C739.933 976.646 735.867 978.28 732.458 980.904C729.05 983.527 726.429 987.039 724.885 991.054C723.341 995.069 722.932 999.432 723.705 1003.66C724.477 1007.9 726.399 1011.83 729.262 1015.04C715.999 1020.2 701.974 1023.13 687.754 1023.71C687.499 1023.75 687.27 1023.89 687.104 1024.09C686.939 1024.29 686.848 1024.54 686.848 1024.8C686.848 1025.06 686.939 1025.31 687.104 1025.51C687.27 1025.71 687.499 1025.84 687.754 1025.89C702.915 1026.21 717.982 1023.42 732.021 1017.69C734.893 1019.97 738.262 1021.54 741.853 1022.27C745.445 1023 749.159 1022.88 752.695 1021.91C756.231 1020.95 759.489 1019.16 762.205 1016.7C764.921 1014.23 767.019 1011.17 768.328 1007.74C769.638 1004.32 770.123 1000.63 769.743 996.986C769.364 993.34 768.131 989.834 766.144 986.753C764.157 983.672 761.472 981.102 758.307 979.252C755.142 977.402 751.586 976.324 747.927 976.104V976.142ZM743.059 1011.56C742.676 1008.99 742.523 1006.38 742.063 1003.89H736.429C736.084 1006.15 736.084 1008.41 735.739 1010.67C735.719 1010.84 735.667 1010.99 735.587 1011.13C735.507 1011.27 735.399 1011.4 735.271 1011.5C735.143 1011.6 734.997 1011.67 734.84 1011.71C734.684 1011.76 734.52 1011.77 734.359 1011.75C734.198 1011.73 734.043 1011.68 733.901 1011.6C733.76 1011.52 733.636 1011.41 733.537 1011.28C733.437 1011.15 733.364 1011.01 733.321 1010.85C733.278 1010.69 733.266 1010.53 733.286 1010.37C733.286 1007.84 735.394 991.741 735.816 989.48C736.352 986.299 738.038 986.03 738.997 986.145C740.99 986.375 741.526 988.445 741.948 989.978C743.059 994.079 745.78 1006.57 746.47 1010.71C746.777 1012.78 743.404 1013.63 743.059 1011.56ZM760.268 1008.6C754.097 1012.9 746.317 1007.76 748.77 1001.82C750.341 997.988 756.435 995.382 759.003 999.368C759.312 1000.01 759.464 1000.72 759.446 1001.43C759.428 1002.15 759.242 1002.85 758.902 1003.48C758.561 1004.11 758.077 1004.64 757.488 1005.05C756.9 1005.45 756.224 1005.71 755.515 1005.81C754.243 1005.97 752.955 1005.97 751.683 1005.81C752.168 1006.34 752.738 1006.8 753.369 1007.15C757.202 1008.76 759.77 1005.88 760.536 1007.49C760.596 1007.66 760.602 1007.83 760.554 1008C760.506 1008.16 760.405 1008.31 760.268 1008.41V1008.6Z" fill="black"/>
<path d="M738.415 990.207C737.84 993.12 737.189 998.333 736.882 1000.75H741.443C741.021 998.792 739.91 993.312 739.143 990.322C739.028 989.824 738.492 989.709 738.415 990.207ZM406.354 932.833C404.054 931.453 398.995 931.3 398.689 934.327C398.459 936.014 398.689 942.759 398.689 944.56C400.437 944.51 402.157 944.099 403.739 943.354C405.322 942.609 406.734 941.545 407.887 940.23C408.318 939.659 408.623 939.003 408.78 938.305C408.937 937.607 408.943 936.884 408.798 936.183C408.653 935.483 408.36 934.822 407.938 934.244C407.517 933.666 406.976 933.185 406.354 932.833Z" fill="black"/>
<path d="M471.857 974.494C461.264 970.614 450.899 966.135 440.813 961.08C442.826 956.965 444.009 952.494 444.295 947.923C444.58 943.351 443.962 938.767 442.476 934.434C440.991 930.101 438.666 926.104 435.635 922.669C432.604 919.234 428.926 916.43 424.812 914.417C420.697 912.404 416.226 911.221 411.654 910.935C407.083 910.65 402.499 911.268 398.166 912.754C393.833 914.24 389.835 916.564 386.401 919.595C382.966 922.626 380.162 926.304 378.149 930.419C373.512 927.95 369.009 925.238 364.658 922.293C363.47 921.527 362.358 923.328 363.47 924.133C368.644 927.966 372.975 930.648 376.999 933.101C363.24 973.268 416.706 998.985 439.471 963.418C449.463 969.091 460.159 973.421 471.282 976.295C471.507 976.328 471.736 976.28 471.929 976.16C472.122 976.04 472.265 975.855 472.334 975.639C472.403 975.422 472.393 975.188 472.306 974.979C472.219 974.769 472.06 974.597 471.857 974.494ZM410.535 943.833C407.431 946.808 403.335 948.528 399.037 948.662V959.393C399.037 959.83 398.863 960.25 398.554 960.559C398.245 960.868 397.826 961.041 397.389 961.041C396.952 961.041 396.533 960.868 396.224 960.559C395.915 960.25 395.741 959.83 395.741 959.393C395.741 957.554 395.089 942.338 395.051 941.112C395.051 937.279 393.595 930.725 398.884 928.617C408.619 924.516 417.817 935.286 410.343 943.795L410.535 943.833ZM428.165 955.331C427.629 961.463 419.388 964.108 414.483 960.467C414.133 960.191 413.898 959.795 413.823 959.356C413.748 958.917 413.838 958.466 414.076 958.089C414.315 957.713 414.684 957.438 415.113 957.318C415.542 957.198 416 957.241 416.399 957.439C417.508 958.182 418.842 958.516 420.171 958.383C421.5 958.25 422.741 957.659 423.681 956.711C424.831 955.522 424.371 953.146 422.493 953.414C421.037 953.83 419.519 953.986 418.009 953.874C417.243 953.696 416.534 953.332 415.944 952.812C415.354 952.293 414.902 951.636 414.629 950.899C414.356 950.162 414.269 949.369 414.377 948.591C414.486 947.813 414.785 947.073 415.249 946.439C415.896 945.525 416.749 944.776 417.74 944.253C418.73 943.73 419.83 943.448 420.95 943.429C422.069 943.41 423.178 943.656 424.185 944.145C425.192 944.635 426.07 945.355 426.747 946.247C427.897 947.742 425.521 949.543 424.371 948.087C423.835 947.465 423.126 947.016 422.335 946.797C421.543 946.579 420.704 946.601 419.925 946.861C416.591 948.087 418.699 951.383 420.921 950.693C421.42 950.54 428.472 949.428 427.974 955.177L428.165 955.331ZM738.495 827.857C737.253 830.691 735.833 833.443 734.241 836.097C731.238 831.924 727.35 828.466 722.854 825.971C718.359 823.477 713.368 822.007 708.238 821.667C703.108 821.327 697.966 822.125 693.181 824.004C688.395 825.884 684.085 828.798 680.557 832.538C677.03 836.279 674.373 840.752 672.777 845.64C671.181 850.527 670.685 855.706 671.325 860.808C671.965 865.909 673.724 870.806 676.478 875.147C679.231 879.489 682.911 883.168 687.252 885.921C683.42 889.332 675.486 895.388 673.877 896.653L671.04 895.35C669.776 894.775 668.741 896.653 670.044 897.266C670.635 897.542 671.211 897.849 671.769 898.186C666.944 901.686 661.942 904.935 656.783 907.921C656.514 908.073 656.316 908.327 656.233 908.625C656.15 908.923 656.19 909.242 656.342 909.511C656.495 909.781 656.748 909.979 657.046 910.061C657.344 910.144 657.663 910.105 657.933 909.952C664.257 906.426 669.699 903.092 674.49 899.834C677.988 902.267 681.248 905.026 684.225 908.074C684.525 908.31 684.901 908.428 685.282 908.407C685.663 908.386 686.024 908.226 686.296 907.959C686.568 907.691 686.734 907.333 686.762 906.953C686.79 906.572 686.678 906.194 686.448 905.89C683.459 903.072 680.241 900.508 676.828 898.224C679.166 896.538 686.639 890.981 690.395 887.684C697.097 890.983 704.681 892.045 712.031 890.714C719.381 889.384 726.111 885.731 731.232 880.293C736.353 874.855 739.594 867.918 740.481 860.501C741.367 853.084 739.852 845.578 736.157 839.086C738.129 835.794 739.773 832.315 741.063 828.7C741.714 827.052 739.147 826.247 738.495 827.857ZM706.262 870.552C705.493 867.962 704.892 865.325 704.461 862.657L696.374 863.462C695.914 865.877 695.454 868.291 695.071 870.706C694.688 873.12 691.545 872.124 691.852 870.054C692.542 864.957 696.642 843.226 697.447 841.156C699.709 836.71 703.12 839.776 705.113 844.797C707.046 853.109 708.555 861.513 709.635 869.978C709.711 870.425 709.607 870.884 709.344 871.254C709.082 871.624 708.684 871.875 708.236 871.951C707.789 872.028 707.33 871.923 706.96 871.661C706.589 871.398 706.339 871 706.262 870.552ZM712.816 845.679C713.01 845.226 713.298 844.82 713.66 844.487C714.023 844.153 714.451 843.901 714.918 843.745C715.385 843.589 715.88 843.534 716.37 843.584C716.86 843.633 717.334 843.785 717.76 844.031C718.141 844.286 718.462 844.62 718.701 845.011C718.941 845.401 719.093 845.839 719.148 846.294C719.202 846.749 719.158 847.21 719.018 847.646C718.878 848.083 718.645 848.483 718.335 848.821C717.854 849.412 717.179 849.814 716.43 849.954C715.681 850.094 714.907 849.964 714.245 849.587C713.583 849.21 713.076 848.61 712.814 847.895C712.553 847.179 712.553 846.394 712.816 845.679ZM719.485 870.169C719.479 870.609 719.315 871.032 719.024 871.361C718.733 871.69 718.333 871.905 717.898 871.965C717.462 872.025 717.019 871.927 716.65 871.689C716.28 871.451 716.008 871.089 715.882 870.667C715.576 869.824 715.001 858.02 715.001 856.64C715.001 856.244 715.158 855.863 715.439 855.583C715.719 855.303 716.099 855.145 716.496 855.145C716.892 855.145 717.272 855.303 717.553 855.583C717.833 855.863 717.99 856.244 717.99 856.64C718.105 858.825 719.523 869.518 719.485 870.169Z" fill="black"/>
<path d="M697.138 859.667L703.807 858.939C703.139 854.265 702.01 849.669 700.434 845.218C699.553 849.051 697.943 855.873 697.138 859.667ZM327.786 1024.74C324.566 1026.66 327.211 1031.87 331.618 1029.91C331.618 1027.38 331.388 1025.51 331.312 1024.62C330.758 1024.36 330.148 1024.23 329.535 1024.25C328.921 1024.27 328.321 1024.44 327.786 1024.74Z" fill="black"/>
<path d="M364.811 1019.87C358.467 1020.87 352.067 1021.45 345.648 1021.64C343.923 991.472 300.768 991.434 299.005 1021.64C292.346 1020.99 285.793 1019.52 279.497 1017.27C279.378 1017.21 279.249 1017.17 279.117 1017.16C278.984 1017.15 278.851 1017.16 278.725 1017.2C278.599 1017.25 278.482 1017.31 278.381 1017.4C278.279 1017.48 278.196 1017.59 278.136 1017.71C278.076 1017.83 278.039 1017.95 278.029 1018.09C278.018 1018.22 278.034 1018.35 278.075 1018.48C278.115 1018.6 278.181 1018.72 278.267 1018.82C278.353 1018.92 278.458 1019.01 278.577 1019.07C284.963 1022.45 291.96 1024.52 299.158 1025.16C299.884 1030.79 302.634 1035.96 306.894 1039.7C311.155 1043.45 316.634 1045.52 322.307 1045.52C327.981 1045.52 333.46 1043.45 337.72 1039.7C341.981 1035.96 344.731 1030.79 345.456 1025.16C352.13 1024.48 358.758 1023.42 365.31 1021.98C365.535 1021.87 365.716 1021.68 365.823 1021.46C365.93 1021.23 365.957 1020.97 365.899 1020.73C365.841 1020.48 365.702 1020.27 365.505 1020.11C365.307 1019.95 365.063 1019.87 364.811 1019.87ZM318.82 1032.1C318.767 1032.36 318.661 1032.6 318.508 1032.82C318.354 1033.03 318.157 1033.21 317.929 1033.35C317.702 1033.48 317.448 1033.57 317.185 1033.59C316.923 1033.62 316.657 1033.6 316.405 1033.52C315.255 1033.17 315.447 1032.52 313.607 1029.91C313.032 1030.87 312.457 1031.87 311.921 1032.86C311.711 1033.21 311.377 1033.46 310.988 1033.56C310.6 1033.67 310.186 1033.62 309.832 1033.43C309.479 1033.23 309.212 1032.91 309.087 1032.53C308.962 1032.15 308.989 1031.73 309.161 1031.37C309.889 1029.99 310.618 1028.57 311.423 1027.19C310.477 1026.21 309.423 1025.33 308.28 1024.59C307.905 1024.32 307.645 1023.93 307.552 1023.48C307.459 1023.03 307.54 1022.56 307.779 1022.17C308.019 1021.78 308.398 1021.5 308.84 1021.38C309.281 1021.25 309.753 1021.31 310.158 1021.52C314.949 1024.47 311.997 1024.82 315.638 1020.29C317.133 1018.45 319.969 1020.72 318.743 1022.59C317.9 1023.9 316.827 1025.24 315.907 1026.43C317.785 1028.84 319.011 1030.72 318.781 1032.1H318.82ZM335.147 1032.56C334.331 1033.29 333.366 1033.85 332.319 1034.18C331.271 1034.51 330.164 1034.61 329.074 1034.47C327.984 1034.34 326.935 1033.97 325.999 1033.4C325.063 1032.82 324.261 1032.05 323.649 1031.14C322.868 1029.99 322.454 1028.63 322.461 1027.24C322.468 1025.85 322.895 1024.49 323.687 1023.34C324.479 1022.2 325.598 1021.32 326.897 1020.83C328.197 1020.33 329.616 1020.24 330.969 1020.56C330.638 1016.42 330.522 1012.26 330.624 1008.11C330.63 1007.66 330.799 1007.24 331.1 1006.91C331.4 1006.58 331.81 1006.38 332.252 1006.34C332.693 1006.29 333.135 1006.42 333.492 1006.68C333.85 1006.94 334.098 1007.33 334.188 1007.76C334.993 1012.78 335.607 1027.5 335.683 1029.19C335.76 1030.07 336.143 1031.52 335.108 1032.56H335.147ZM263.514 805.972C264.204 805.972 264.396 805.972 264.434 805.742C264.434 805.09 263.131 796.467 262.978 795.432C252.093 796.927 253.473 806.968 263.514 805.972Z" fill="black"/>
<path d="M290.614 769.638C286.07 770.261 281.566 771.144 277.123 772.283C273.55 768.813 269.194 766.255 264.424 764.825C259.653 763.395 254.608 763.135 249.716 764.067C244.824 764.999 240.228 767.096 236.318 770.181C232.407 773.265 229.298 777.246 227.252 781.787C225.206 786.327 224.283 791.294 224.563 796.267C224.843 801.239 226.316 806.071 228.859 810.353C231.401 814.636 234.938 818.243 239.169 820.869C243.401 823.496 248.203 825.064 253.169 825.442C257.493 837.617 265.028 848.396 274.977 856.64C275.067 856.728 275.174 856.797 275.292 856.844C275.409 856.891 275.535 856.914 275.661 856.912C275.787 856.91 275.912 856.883 276.028 856.833C276.144 856.783 276.249 856.711 276.337 856.62C276.425 856.53 276.495 856.423 276.541 856.305C276.588 856.188 276.611 856.063 276.609 855.936C276.608 855.81 276.581 855.685 276.531 855.569C276.481 855.453 276.409 855.348 276.318 855.26C268.021 846.576 261.303 836.512 256.465 825.518C262.242 825.301 267.843 823.478 272.642 820.256C277.441 817.033 281.248 812.538 283.636 807.273C286.023 802.009 286.897 796.183 286.16 790.45C285.422 784.716 283.103 779.302 279.461 774.813C283.524 773.739 287.126 772.781 290.959 772.053C292.799 771.746 292.147 769.332 290.614 769.638ZM242.782 808.425V779.91C242.841 779.53 243.034 779.185 243.326 778.935C243.618 778.685 243.989 778.548 244.373 778.548C244.757 778.548 245.128 778.685 245.42 778.935C245.712 779.185 245.904 779.53 245.964 779.91C245.964 785.582 246.615 804.592 246.73 808.425C246.598 808.845 246.335 809.211 245.98 809.472C245.625 809.732 245.196 809.872 244.756 809.872C244.316 809.872 243.887 809.732 243.532 809.472C243.178 809.211 242.915 808.845 242.782 808.425ZM266.238 808.808C258.573 812.909 248.34 805.589 253.169 797.042C254.228 795.52 255.646 794.284 257.297 793.441C258.948 792.599 260.782 792.177 262.636 792.213C261.995 788.037 261.611 783.826 261.486 779.603C261.506 779.188 261.672 778.793 261.955 778.489C262.238 778.184 262.62 777.989 263.033 777.939C263.446 777.889 263.863 777.986 264.211 778.213C264.559 778.44 264.815 778.784 264.935 779.182C265.587 781.941 267.426 800.3 267.618 802.714C267.695 804.592 268.538 807.39 266.238 808.617V808.808Z" fill="black"/>
<path fill-rule="evenodd" clip-rule="evenodd" d="M716 25C716 11.1929 704.807 0 691 0H309C295.193 0 284 11.1929 284 25V25C284 38.8071 295.193 50 309 50H337C366.271 50 390 73.7289 390 103V150C390 205.228 434.772 250 490 250H510C565.228 250 610 205.228 610 150V103C610 73.7289 633.729 50 663 50H691C704.807 50 716 38.8071 716 25V25Z" fill="#4285F4"/>
<path d="M505.66 204.875C496.16 204.875 487.285 203.188 479.035 199.812C470.785 196.312 463.535 191.5 457.285 185.375C451.035 179.25 446.16 172.125 442.66 164C439.285 155.75 437.598 146.875 437.598 137.375C437.598 128 439.285 119.25 442.66 111.125C446.16 103 450.973 95.9375 457.098 89.9375C463.348 83.8125 470.598 79.0625 478.848 75.6875C487.098 72.3125 495.973 70.625 505.473 70.625C512.098 70.625 518.535 71.5625 524.785 73.4375C531.16 75.3125 536.91 77.9375 542.035 81.3125C547.16 84.6875 551.348 88.5625 554.598 92.9375L541.473 106.625C537.723 103 533.848 100 529.848 97.625C525.973 95.25 521.973 93.4375 517.848 92.1875C513.723 90.9375 509.598 90.3125 505.473 90.3125C498.723 90.3125 492.473 91.5 486.723 93.875C481.098 96.25 476.098 99.5625 471.723 103.812C467.473 108.062 464.16 113.062 461.785 118.812C459.41 124.437 458.223 130.625 458.223 137.375C458.223 143.875 459.473 150.062 461.973 155.937C464.473 161.687 467.91 166.75 472.285 171.125C476.785 175.5 481.91 178.937 487.66 181.437C493.535 183.937 499.723 185.187 506.223 185.187C511.098 185.187 515.723 184.5 520.098 183.125C524.473 181.625 528.348 179.562 531.723 176.937C535.098 174.312 537.723 171.312 539.598 167.937C541.473 164.437 542.41 160.75 542.41 156.875V153.125L545.223 155.75H505.098V135.687H563.223C563.473 137.062 563.66 138.437 563.785 139.812C563.91 141.062 563.973 142.312 563.973 143.562C564.098 144.687 564.16 145.812 564.16 146.937C564.16 155.562 562.66 163.437 559.66 170.562C556.66 177.562 552.473 183.625 547.098 188.75C541.848 193.875 535.66 197.875 528.535 200.75C521.535 203.5 513.91 204.875 505.66 204.875Z" fill="white"/>
</g>
<defs>
<clipPath id="clip0_19_81">
<rect width="1000" height="1400" fill="white"/>
</clipPath>
</defs>
</svg>
