<svg width="1000" height="1400" viewBox="0 0 1000 1400" fill="none" xmlns="http://www.w3.org/2000/svg">
<g clip-path="url(#clip0_19_105)">
<rect width="1000" height="1400" fill="white"/>
<rect x="-147" y="-263" width="1295" height="1926" fill="#4CAF50"/>
<rect x="50" y="50" width="900" height="1300" rx="50" fill="white"/>
<rect x="375" y="489" width="13" height="99" fill="#4285F4"/>
<rect x="434" y="475" width="12" height="113" fill="#4285F4"/>
<rect x="490" y="544" width="12" height="41" fill="#4285F4"/>
<path d="M678.5 959.5L691.5 938L696 928.5L704 907L707 887.5L706 861L724 889L728 878L736.5 877L733.5 867L738.5 855.5L749 857L757.5 855.5L747 841L762.5 831.5L774 823L784.5 810L794 796.5L796 861L777 874.5L793 881.5L791 895.5L798.5 893L817 883L831 867L840 849.5L845 835V868V896.5L843 905L834.5 908.5L823 911.5L838 924.5L835 932.5L830 941L820.5 929L819 928L823.5 948.5V955L793.5 992.5L777 1006L728 1017L687.5 1001L671.5 998L674 977L660.5 993L652 986.5L678.5 959.5Z" fill="#4CAF50"/>
<path d="M567.5 655L574 645L570.5 629L570 607.5L541.5 596.5L520 601.5L515.5 597L516 589.5L520 582L540 568L569 561.5L587.5 565.5L593.5 570L601 579.5L607 598.5L612 618L615 640.5L614 642L611.5 646L615.5 650.5L623.5 651L631 657.5L633.5 667.5L623 670L608.5 671L609.5 680.5L603.5 695L595.5 701.5L581 707.5L575 714L571.5 725.5L557 713L548 702.5L546.5 692L549 686.5L540.5 687.5L538 686.5L534 676.5L527.5 656.5L532.5 654L536 657L545 661.5L559 663L567.5 655Z" fill="#EF5350" stroke="black"/>
<path d="M422.5 1009L442.5 927.5C457.5 929.667 490 934.2 500 935C510 935.8 522.5 932.667 527.5 931L593 856.5L609 838L634.5 822.5L661.5 816.5L680.5 818L694 827.5L704 849.5L708 877.5L701.5 916L682.5 952.5L655.5 984.5L616.5 1009.5L590 1018L588 990.5L585.5 981L579 979.5L564.5 985L558.5 992L565.5 1021.5L540 1026L510.5 1027.5L481.5 1024.5L444.5 1017L422.5 1009Z" fill="#FBBC04"/>
<path d="M546.223 944.718C545.929 944.8 545.678 944.995 545.527 945.261C545.376 945.527 545.337 945.842 545.419 946.136C545.5 946.431 545.695 946.682 545.961 946.832C546.227 946.983 546.542 947.022 546.837 946.941C556.522 944.82 565.602 940.536 573.397 934.408C603.023 912.524 601.49 881.479 618.354 853.08C631.845 831.425 643.688 833.916 642.768 831.118C642.734 831.008 642.677 830.905 642.602 830.818C642.526 830.73 642.433 830.659 642.329 830.608C642.225 830.558 642.111 830.53 641.995 830.525C641.88 830.52 641.764 830.54 641.656 830.582C588.613 850.09 618.584 919.653 546.223 944.718ZM760.89 876.574C762.385 875.002 763.88 873.354 765.336 871.706C776.604 858.024 784.499 836.829 783.733 821.23C783.714 821.062 783.648 820.902 783.544 820.769C783.44 820.636 783.301 820.534 783.142 820.474C782.984 820.415 782.812 820.4 782.645 820.432C782.479 820.464 782.325 820.541 782.2 820.655C781.05 821.767 784.269 827.899 776.183 847.216C768.517 865.536 761.81 870.211 754.26 878.758C747.496 886.568 742.355 895.647 739.137 905.465C735.919 915.283 734.689 925.643 735.518 935.941C735.562 936.158 735.68 936.353 735.851 936.493C736.022 936.633 736.236 936.709 736.457 936.709C736.678 936.709 736.892 936.633 737.063 936.493C737.235 936.353 737.352 936.158 737.396 935.941C737.133 924.976 739.078 914.07 743.114 903.872C747.15 893.673 753.195 884.39 760.89 876.574ZM424.383 711.08C428.216 708.435 427.948 700.348 424.383 697.359C423.375 696.545 422.201 695.964 420.942 695.656C419.684 695.348 418.373 695.321 417.104 695.577C415.834 695.833 414.636 696.366 413.596 697.138C412.555 697.91 411.698 698.901 411.084 700.042C410.373 701.825 410.245 703.787 410.718 705.648C411.192 707.508 412.242 709.171 413.72 710.397C415.197 711.623 417.025 712.35 418.941 712.472C420.856 712.595 422.762 712.107 424.383 711.08ZM413.844 702.303C414.993 697.934 422.544 697.32 423.694 701.69C424.46 704.679 424.115 706.787 422.582 707.937C421.661 708.51 420.613 708.848 419.53 708.921C418.448 708.995 417.364 708.802 416.373 708.359C415.336 707.776 414.524 706.864 414.065 705.766C413.607 704.669 413.529 703.45 413.844 702.303ZM555.345 640.176C555.198 640.165 555.05 640.185 554.911 640.234C554.772 640.283 554.644 640.361 554.536 640.462C554.428 640.562 554.342 640.684 554.284 640.82C554.225 640.955 554.195 641.101 554.195 641.249C554.195 645.081 547.718 648.914 546.53 649.297C546.301 649.353 546.104 649.498 545.982 649.699C545.86 649.9 545.823 650.142 545.878 650.37C545.934 650.599 546.079 650.796 546.28 650.919C546.481 651.041 546.723 651.078 546.952 651.022C557.032 648.952 558.565 640.099 555.345 640.176ZM541.893 634.312C541.433 634.043 539.401 632.549 538.673 631.974C538.673 631.476 540.474 625.075 540.819 623.849C541.164 622.622 539.593 622.315 539.171 623.312C537.568 626.419 536.284 629.681 535.339 633.047C535.645 634.158 540.973 635.615 541.356 635.615C541.516 635.637 541.678 635.605 541.818 635.524C541.957 635.444 542.066 635.319 542.128 635.17C542.189 635.022 542.199 634.856 542.157 634.701C542.114 634.546 542.021 634.409 541.893 634.312ZM529.245 613.769C529.19 613.437 529.019 613.136 528.763 612.919C528.507 612.702 528.182 612.583 527.846 612.583C527.51 612.583 527.185 612.702 526.929 612.919C526.673 613.136 526.502 613.437 526.447 613.769C526.301 616.411 526.301 619.06 526.447 621.702C526.687 622.095 527.051 622.397 527.482 622.559C527.913 622.722 528.386 622.736 528.826 622.6C529.265 622.463 529.647 622.184 529.911 621.806C530.174 621.429 530.304 620.974 530.28 620.514C529.749 618.298 529.403 616.042 529.245 613.769ZM556.035 620.476C555.544 618.278 555.198 616.05 555 613.807C555 613.431 554.851 613.07 554.585 612.804C554.319 612.538 553.958 612.389 553.582 612.389C553.206 612.389 552.845 612.538 552.579 612.804C552.313 613.07 552.164 613.431 552.164 613.807C552.025 616.36 552.025 618.919 552.164 621.472C552.186 621.769 552.272 622.057 552.417 622.317C552.562 622.577 552.763 622.801 553.004 622.975C553.246 623.149 553.523 623.267 553.815 623.322C554.107 623.377 554.408 623.367 554.696 623.293C554.985 623.219 555.253 623.082 555.482 622.893C555.712 622.704 555.897 622.466 556.025 622.197C556.152 621.929 556.22 621.635 556.221 621.338C556.223 621.04 556.159 620.746 556.035 620.476Z" fill="black"/>
<path d="M855.974 568.275C855.706 544.398 847.696 534.969 822.975 535.698C815.923 535.698 690.174 536.962 681.167 537.269C675.128 537.271 669.154 538.51 663.613 540.91C660.432 542.175 643.799 550.492 641.959 554.899C639.966 558.042 642.304 647.573 641.959 666.046C639.296 664.53 636.559 663.148 633.757 661.907C633.251 659.389 632.176 657.021 630.615 654.981C629.054 652.942 627.048 651.287 624.75 650.141C621.224 648.761 616.702 650.409 614.096 647.918C611.489 645.426 616.165 644.085 616.663 640.252C616.648 637.595 616.34 634.947 615.744 632.357C613.433 618.464 610.207 604.739 606.085 591.271C602.636 580.195 599.033 570.805 589.107 564.787C589.107 546.161 587.229 437.007 586.194 431.219C585.173 425.508 582.127 420.356 577.615 416.709C573.102 413.062 567.425 411.165 561.627 411.366C561.243 411.366 297.48 411.366 297.173 411.673C286.634 417.958 283.797 431.986 283.108 442.334C282.878 447.508 287.4 551.986 289.202 585.177C270.537 585.56 176.253 588.09 170.849 590.964C158.623 593.954 145.094 602.462 142.449 616.298C140.801 625.19 144.136 796.011 145.247 804.098C146.043 812.833 149.946 820.993 156.247 827.094C163.107 833.111 172.459 834.223 180.699 834.53L355.583 831.233C338.489 869.943 318.79 924.827 305.759 958.976C305.697 959.073 305.665 959.186 305.665 959.302C305.665 959.417 305.697 959.53 305.759 959.627C309.285 963.092 313.135 966.21 317.257 968.941C311.009 990.289 311.699 991.477 310.319 993.201C298.477 1007.73 284.181 1016.2 270.077 1017.58C263.523 1018.31 257.046 1019.46 254.746 1025.82C252.868 1031.6 257.85 1035.48 263.676 1037.09C267.509 1038.12 293.647 1043.91 297.518 1044.37C300.949 1044.94 304.468 1044.16 307.33 1042.18C310.089 1040.15 319.173 1029.42 322.661 1026.2C316.337 1056.86 311.929 1047.09 326.991 1053.64C327.202 1053.75 327.434 1053.82 327.672 1053.83C327.911 1053.84 328.148 1053.8 328.368 1053.71C328.588 1053.62 328.785 1053.48 328.945 1053.3C329.104 1053.12 329.223 1052.91 329.291 1052.68C331.974 1045.02 350.141 1001.21 357.538 989.829C359.339 1036.13 359.032 1033.71 359.684 1033.9C362.252 1034.56 365.05 1035.17 367.924 1035.74C367.924 1042.18 368.116 1048.77 368.652 1055.98C368.652 1056.21 368.346 1056.59 368.039 1057.21C358.534 1078.06 347.879 1086.56 336.305 1091.7C331.169 1094 324.079 1097.14 324.27 1104.23C324.27 1110.37 330.556 1112.32 336.65 1112.09C345.81 1111.78 357.653 1110.56 363.018 1110.29C378.349 1109.37 378.732 1106.46 385.248 1093.31C386.743 1090.28 388.506 1086.68 389.502 1084.92C391.303 1106.46 388.927 1109.64 391.878 1109.48C399.889 1109.06 403.376 1111.25 403.376 1108.37C403.683 1100.48 407.209 1069.43 409.049 1061.81C409.049 1060.92 408.435 1060.43 407.516 1060.23C408.665 1053.11 411.348 1039.08 411.693 1036.51C413.609 1036.24 415.526 1035.94 417.021 1035.59C417.442 1035.59 417.021 1037.62 423.498 1010.91C470.026 1029.27 519.659 1033.67 564.194 1023.21C565.766 1029.3 577.149 1070.85 583.358 1089.06C585.473 1095 588.291 1100.68 591.751 1105.96C592.633 1106.8 594.127 1108.3 595.584 1108.3C597.04 1108.3 598.65 1106.26 599.033 1104.19C599.416 1102.13 593.399 1041.68 591.368 1019.88C600.474 1017.62 609.304 1014.37 617.698 1010.18L630.116 1051.42C630.48 1052.03 631.027 1052.52 631.68 1052.81C632.334 1053.09 633.061 1053.17 633.76 1053.02C634.458 1052.87 635.092 1052.51 635.573 1051.98C636.054 1051.45 636.357 1050.79 636.44 1050.08L635.252 1000.68C641.055 996.893 646.61 992.746 651.885 988.257C654.281 990.573 656.975 992.558 659.896 994.16C660.196 994.325 660.55 994.366 660.88 994.273C661.21 994.179 661.49 993.96 661.659 993.661C664.846 988.842 668.422 984.291 672.352 980.055C671.585 984.999 670.091 995.118 669.899 998.26C669.894 998.463 669.93 998.665 670.005 998.853C670.08 999.042 670.193 999.213 670.336 999.356C670.48 999.5 670.651 999.612 670.839 999.688C671.028 999.763 671.229 999.799 671.432 999.794C675.502 999.666 679.566 1000.2 683.467 1001.36C670.972 1007.38 665.261 1012.48 666.028 1016.7C667.525 1024.22 669.627 1031.62 672.314 1038.81C674.383 1044.79 676.529 1051 682.968 1053.6C712.48 1066.1 756.325 1056.98 785.952 1044.52C811.094 1034.67 814.773 1018.73 812.55 996.191C812.09 991.898 807.108 991.4 796.645 991.668L822.132 959.436C829.797 950.276 823.128 950.582 820.714 932.607C823.023 936.028 825.796 939.111 828.954 941.767C829.142 941.914 829.358 942.021 829.589 942.08C829.82 942.14 830.06 942.15 830.296 942.112C831.33 941.92 830.525 942.457 840.03 925.363C840.211 925.052 840.279 924.688 840.223 924.332C840.168 923.976 839.991 923.65 839.724 923.409C835.546 919.959 825.466 911.911 825.466 911.911C830.663 910.681 835.782 909.145 840.797 907.312C841.993 907.003 843.075 906.36 843.917 905.457C844.759 904.553 845.326 903.428 845.549 902.214C846.048 899.225 846.086 839.014 846.163 830.812C846.163 829.47 844.016 829.087 843.786 830.544C839.302 860.937 818.721 886.232 792.429 893.782C793.272 890.371 795.418 882.974 794.23 880.943C789.895 878.214 785.283 875.953 780.471 874.198C785.262 871.476 796.338 864.386 797.143 862.201C797.641 860.937 795.188 801.799 795.073 795.321C795.055 795.055 794.951 794.801 794.779 794.596C794.607 794.391 794.374 794.247 794.114 794.183C793.854 794.119 793.58 794.139 793.333 794.24C793.085 794.342 792.876 794.519 792.735 794.747C785.314 809.399 774.338 821.957 760.809 831.272C759.238 832.345 747.932 838.362 747.05 839.167C744.214 841.888 747.74 845.223 749.235 847.331C750.308 848.787 753.987 853.731 754.716 854.766C741.225 856.414 737.66 851.776 736.97 854.766C735.645 858.67 733.856 862.402 731.643 865.881C732.433 869.24 733.445 872.543 734.671 875.769C732.425 876.139 730.133 876.139 727.887 875.769C727.487 875.683 727.068 875.749 726.714 875.955C726.36 876.16 726.095 876.49 725.971 876.88C724.898 880.368 724.054 883.281 723.288 886.002C718.642 878.123 713.522 870.533 707.957 863.274C705.236 842.501 695.424 818.241 674.69 815.021C690.289 808.506 700.522 791.757 702.975 774.778C710.333 774.778 816.651 774.472 820.944 774.778C844.208 775.43 854.595 766.538 856.779 742.814C857.661 733.348 855.974 570 855.974 568.275ZM326.723 1024.59C326.82 1024.18 326.759 1023.76 326.553 1023.39C326.346 1023.03 326.01 1022.76 325.612 1022.64C322.507 1021.49 320.131 1024.21 318.406 1026.16C314.04 1031.48 309.246 1036.42 304.072 1040.96C301.198 1042.34 267.739 1035.4 263.561 1034.1C261.312 1033.59 259.356 1032.21 258.119 1030.26C257.635 1028.85 257.687 1027.31 258.267 1025.93C258.846 1024.55 259.912 1023.43 261.262 1022.79C264.213 1020.99 266.397 1021.14 274.676 1019.61C282.954 1018.08 291.156 1016.58 305.567 1003.01C307.575 1001.09 309.444 999.028 311.163 996.842C313.556 1002.16 317.584 1006.58 322.661 1009.45C329.462 1012.47 337.059 1013.21 344.315 1011.56C340.482 1019.23 329.904 1043.18 327.26 1050.5C325.152 1049.66 323.006 1048.89 320.898 1048.28C323.271 1040.49 325.216 1032.59 326.723 1024.59ZM663.307 814.715C657.916 814.946 652.562 815.716 647.325 817.014C630.158 818.955 612.898 819.953 595.622 820.004C593.093 804.673 593.859 807.509 593.208 803.255C592.939 801.415 592.556 798.886 593.897 798.081C612.256 789.879 631.342 782.444 649.624 774.434C653.457 777.231 653.763 776.886 654.108 776.656C654.273 776.479 654.364 776.247 654.364 776.005C654.364 775.763 654.273 775.531 654.108 775.353C652.613 773.842 651.039 772.409 649.394 771.061C634.681 757.903 624.433 740.488 620.074 721.236C620.024 721.008 619.884 720.808 619.686 720.683C619.489 720.557 619.249 720.515 619.021 720.566C618.792 720.616 618.593 720.756 618.467 720.954C618.341 721.151 618.299 721.391 618.35 721.62C621.597 741.64 631.952 759.819 647.516 772.824L594.664 794.67C593.136 795.118 591.793 796.045 590.831 797.314C588.186 796.595 585.796 795.148 583.933 793.137C573.968 785.127 569.982 790.607 557.104 800.802C555.859 801.741 554.681 802.766 553.578 803.868C546.77 797.814 539.987 791.732 533.227 785.625C531.502 783.095 515.788 728.902 509.349 707.132C514.327 695.064 522.357 684.498 532.652 676.471C533.842 680.106 535.342 683.632 537.136 687.011C540.01 689.77 543.728 688.429 547.331 687.547C546.338 689.607 545.766 691.844 545.647 694.128C545.529 696.411 545.867 698.695 546.641 700.847C549.354 706.93 553.592 712.211 558.944 716.177C572.051 727.675 571.4 727.369 572.166 727.369C572.52 727.351 572.855 727.205 573.109 726.958C573.363 726.711 573.519 726.38 573.546 726.027C574.849 712.651 579.142 708.972 591.253 704.718C597.877 702.555 603.481 698.046 607.011 692.038C610.54 686.031 611.752 678.94 610.416 672.102C618.427 672.162 626.408 671.131 634.14 669.036C634.506 668.953 634.823 668.73 635.025 668.414C635.226 668.098 635.293 667.715 635.213 667.349C635.213 666.698 634.945 665.931 634.754 665.126C690.672 692.3 724.744 776.963 679.634 808.429C674.728 811.714 669.149 813.862 663.307 814.715ZM676.184 819.084C686.034 821.192 694.275 829.47 699.64 844.035C725.242 913.214 665.568 997.034 591.483 1016.5C591.023 1011.87 588.493 984.961 587.995 982.968C587.628 981.209 586.616 979.651 585.159 978.599C580.445 975.993 572.358 978.867 568.065 981.397C563.973 984.114 560.316 987.435 557.219 991.247C557.219 992.473 562.585 1015.58 563.734 1020.3C517.152 1030.04 468.734 1025.88 424.494 1008.34C431.316 979.979 440.361 941.154 442.891 929.119C469.26 937.321 506.321 936.555 506.705 936.516C506.827 936.484 506.936 936.412 507.013 936.311C507.09 936.211 507.132 936.088 507.132 935.961C507.132 935.834 507.09 935.711 507.013 935.61C506.936 935.51 506.827 935.437 506.705 935.405C485.433 928.315 467.075 910.033 455.04 883.894C436.529 844.839 398.126 845.299 383.178 864.731C361.562 892.786 358.074 974.421 357.729 984.271C356.388 986.724 348.684 1001.79 345.771 1007.92C322.776 1013.4 316.222 1000.25 313.424 994.619C312.964 993.661 313.194 996.191 320.323 971.01C324.155 972.888 351.405 982.508 351.444 979.672C351.75 947.095 359.646 869.598 381.032 851.776C396.363 839.205 429.515 841.39 444.194 852.275C453.526 860.793 461.16 871.001 466.692 882.361C478.995 908.768 500.189 928.353 523.722 933.259C553.885 930.614 588.877 882.553 598.88 851.815C617.353 828.397 647.823 814.983 676.184 819.084ZM736.166 974.958C736.216 975.187 736.356 975.386 736.554 975.512C736.751 975.637 736.991 975.679 737.22 975.629C737.448 975.578 737.647 975.438 737.773 975.241C737.899 975.043 737.941 974.803 737.89 974.575C735.476 962.234 728.654 951.579 724.361 940.081C716.926 920.419 722.33 899.301 728.615 879.333C731.419 879.857 734.316 879.481 736.894 878.26C739.002 876.612 737.315 873.814 734.939 866.762C736.893 863.807 738.428 860.595 739.5 857.219C745.49 858.636 751.719 858.715 757.743 857.449C757.977 857.389 758.194 857.275 758.375 857.116C758.557 856.957 758.698 856.757 758.788 856.533C758.877 856.309 758.913 856.066 758.891 855.826C758.869 855.586 758.791 855.354 758.663 855.149C756.095 851.776 749.312 842.54 748.967 841.85C748.622 841.16 748.967 841.237 750.078 840.738C768.398 832.402 783.42 818.202 792.774 800.381C793.234 812.913 794.728 859.557 794.307 861.435C788.352 865.745 782.073 869.589 775.527 872.933C775.241 873.09 775.009 873.33 774.859 873.62C774.709 873.91 774.649 874.238 774.686 874.562C774.723 874.886 774.855 875.192 775.066 875.441C775.278 875.69 775.558 875.871 775.872 875.961C781.294 877.815 786.551 880.122 791.586 882.859C792.276 883.971 789.861 892.748 789.439 895.009L785.607 895.775C785.225 895.875 784.897 896.118 784.69 896.453C784.483 896.789 784.413 897.191 784.495 897.577C785.492 904.361 787.753 921.071 787.753 921.071C776.753 910.838 776.83 905.165 774.454 904.935C774.218 904.906 773.979 904.936 773.758 905.023C773.537 905.11 773.341 905.251 773.189 905.434C755.167 926.345 745.05 952.914 744.597 980.515C744.64 980.722 744.753 980.908 744.917 981.042C745.081 981.175 745.287 981.248 745.498 981.248C745.71 981.248 745.915 981.175 746.079 981.042C746.243 980.908 746.356 980.722 746.399 980.515C747.842 954.399 757.53 929.413 774.07 909.151C777.882 915.718 782.886 921.515 788.826 926.245C789.079 926.47 789.397 926.609 789.734 926.643C790.071 926.677 790.409 926.604 790.702 926.434C790.995 926.264 791.227 926.006 791.365 925.697C791.503 925.388 791.54 925.043 791.471 924.712C791.471 924.712 788.711 906.047 787.638 898.458C813.738 893.821 836.159 871.63 843.71 843.345C843.71 859.097 843.173 898.152 843.173 898.535C843.173 901.026 843.173 903.402 840.95 904.514C834.664 906.722 828.268 908.602 821.787 910.148C821.522 910.218 821.28 910.358 821.087 910.553C820.894 910.748 820.757 910.992 820.691 911.258C820.624 911.525 820.63 911.804 820.709 912.067C820.787 912.33 820.934 912.567 821.135 912.754C822.937 914.21 833.285 922.681 836.696 925.402C836.696 925.402 832.02 934.332 829.644 938.739C825.758 935.143 822.54 930.887 820.139 926.168C819.983 925.9 819.744 925.69 819.458 925.571C819.172 925.452 818.854 925.429 818.554 925.508C818.254 925.586 817.988 925.76 817.797 926.004C817.605 926.248 817.499 926.548 817.494 926.858C818.568 952.46 826.769 949.126 819.986 957.519C796.606 986.916 792.506 996.421 767.325 1003.86C772.384 980.86 789.708 971.547 796.645 954.951C800.477 945.868 799.634 935.788 802.662 926.667C804.77 920.336 808.216 914.533 812.766 909.652C817.316 904.772 822.863 900.928 829.031 898.382C829.254 898.305 829.439 898.143 829.543 897.931C829.647 897.719 829.663 897.475 829.586 897.251C829.51 897.027 829.348 896.843 829.136 896.739C828.924 896.635 828.679 896.619 828.456 896.695C820.424 899.529 813.336 904.537 807.984 911.162C802.631 917.787 799.223 925.769 798.14 934.217C796.492 945.983 796.836 951.77 789.478 962.08C781.352 973.387 768.053 983.39 763.761 1004.81C757.096 1006.47 750.274 1007.42 743.409 1007.65C742.604 1000.79 738.388 996.766 735.399 996.612C732.639 991.783 703.55 947.516 692.818 937.82C704.685 916.463 710.141 892.138 708.532 867.759C713.131 874.542 720.988 887.267 722.368 889.758C708.992 941.346 730.838 949.087 736.166 974.958ZM675.725 976.644C675.723 976.374 675.645 976.11 675.499 975.882C675.352 975.655 675.144 975.474 674.898 975.362C674.652 975.249 674.38 975.209 674.112 975.246C673.844 975.283 673.592 975.396 673.387 975.571C668.486 980.436 664.035 985.734 660.087 991.4C657.83 990.083 655.712 988.542 653.764 986.801C663.026 978.751 671.427 969.76 678.829 959.972C719.532 1008.8 717.577 1007.38 718.727 1006.46C718.817 1006.4 718.894 1006.32 718.953 1006.23C719.012 1006.14 719.051 1006.04 719.069 1005.93C719.087 1005.82 719.083 1005.71 719.057 1005.61C719.031 1005.5 718.984 1005.4 718.919 1005.31C716.236 1001.25 688.909 966.986 680.592 957.366C684.541 951.908 688.151 946.212 691.4 940.311C706.731 955.296 730.532 994.734 732.754 998.452C730.638 1001.5 729.649 1005.18 729.957 1008.88C725.115 1010.23 720.027 1010.45 715.086 1009.53C709.222 1008.38 687.299 997.609 672.927 997.187C673.847 993.01 675.303 980.247 675.84 976.644H675.725ZM575.386 981.512H576.037C579.027 980.822 583.703 979.787 584.814 982.815C585.389 984.884 596.964 1099.21 596.964 1102.74C597.025 1103.29 596.964 1103.86 596.786 1104.39C596.607 1104.92 596.314 1105.4 595.929 1105.8C585.964 1101.97 561.435 1000.29 560.477 991.668C564.339 986.89 569.525 983.357 575.386 981.512ZM167.285 800.534C167.285 791.757 161.459 617.755 162.034 611.469C163.031 599.626 167.285 594.299 176.675 593.072C186.601 591.156 279.275 588.512 289.393 588.243C289.623 592.076 289.815 594.759 289.891 595.257C290.316 598.272 291.754 601.053 293.969 603.143C296.184 605.233 299.044 606.506 302.079 606.755C302.079 606.372 299.55 606.755 378.732 607.023C378.732 618.981 379.461 675.168 379.499 677.812C356.963 678.656 333.737 679.575 329.291 679.997C328.678 679.997 328.141 681.108 328.371 681.645C335.04 698.125 364.743 765.044 373.06 782.214C373.836 784.165 375.169 785.844 376.893 787.043C377.966 788.653 379.231 790.454 380.725 792.255C368.576 801.952 364.207 812.683 357.154 828.397C324.692 829.087 193.117 831.808 190.166 831.693C181.964 831.348 176.177 828.972 172.574 824.45C167.093 817.934 167.323 809.042 167.285 800.534ZM610.684 647.458C611.489 650.371 614.517 651.942 619.193 652.057C627.242 651.712 630.691 658.649 632.147 666.621C624.312 668.152 616.365 669.037 608.385 669.266C608.154 669.268 607.927 669.324 607.721 669.429C607.515 669.534 607.337 669.685 607.199 669.871C607.062 670.057 606.969 670.272 606.929 670.499C606.889 670.727 606.902 670.96 606.967 671.182C608.191 675.557 608.202 680.182 607.001 684.564C605.799 688.945 603.429 692.917 600.145 696.056C589.835 705.982 573.316 700.502 570.902 723.383C567.452 720.393 554.689 709.547 552.083 706.366C547.599 701.192 545.798 692.606 550.397 687.202C560.245 685.593 570.199 684.709 580.177 684.558C580.4 684.558 580.615 684.469 580.773 684.311C580.931 684.153 581.02 683.938 581.02 683.715C581.02 683.491 580.931 683.277 580.773 683.118C580.615 682.96 580.4 682.871 580.177 682.871C568.697 682.057 557.159 682.883 545.913 685.324C541.62 686.512 539.512 687.356 537.596 683.331C536.638 681.3 530.927 663.9 529.93 660.68C528.167 656.503 529.241 657.768 532.46 655.775C535.614 658.44 539.155 660.611 542.961 662.213C542.961 662.673 544.954 668.767 545.261 669.879C545.391 670.8 545.852 671.642 546.557 672.248C547.262 672.855 548.164 673.184 549.094 673.175C558.031 673.996 567.036 672.687 575.37 669.356C583.705 666.025 591.131 660.767 597.04 654.012C597.158 653.851 597.211 653.652 597.191 653.454C597.17 653.256 597.077 653.073 596.93 652.94C596.782 652.806 596.59 652.732 596.391 652.732C596.192 652.732 596 652.805 595.852 652.938C589.916 658.938 582.784 663.622 574.92 666.686C567.056 669.75 558.635 671.125 550.205 670.722C547.522 670.53 547.867 671.105 545.606 663.057C555.954 665.969 558.56 662.022 554.881 665.663C554.761 665.806 554.695 665.987 554.693 666.174C554.692 666.36 554.756 666.542 554.874 666.687C554.991 666.832 555.156 666.931 555.339 666.968C555.522 667.005 555.713 666.977 555.878 666.889C569.819 656.466 579.989 641.789 584.852 625.075C584.888 624.967 584.901 624.853 584.891 624.739C584.88 624.626 584.848 624.516 584.794 624.416C584.74 624.316 584.667 624.227 584.578 624.156C584.489 624.085 584.387 624.032 584.277 624.002C582.285 623.312 583.626 627.26 574.274 642.552C570.442 627.221 573.009 611.009 568.87 595.602C568.814 595.383 568.674 595.196 568.48 595.081C568.286 594.966 568.054 594.933 567.835 594.989C567.617 595.045 567.429 595.185 567.314 595.379C567.199 595.573 567.166 595.805 567.222 596.024C567.894 599.284 568.329 602.589 568.525 605.912C560.362 597.825 543.115 584.909 529.509 587.86C526.578 587.95 523.8 589.191 521.777 591.315C519.754 593.438 518.649 596.272 518.701 599.205C515.405 594.759 517.704 587.975 520.694 584.219C528.589 573.909 542.617 568.888 556.606 565.056C568.985 561.76 585.542 562.22 594.932 573.411C599.006 578.996 601.948 585.324 603.594 592.038C608.49 607.168 611.904 622.737 613.789 638.528C613.935 639.164 613.905 639.829 613.703 640.45C613.5 641.071 613.132 641.625 612.639 642.054C611.874 642.709 611.292 643.551 610.949 644.498C610.607 645.445 610.515 646.465 610.684 647.458ZM375.858 781.294C372.255 773.629 336.65 694.676 330.977 681.645C343.664 681.645 486.813 676.394 489.304 676.318C494.172 691.955 522.533 786.391 522.533 787.196C522.533 787.196 488.653 788.039 470.371 788.768C439.518 773.207 410.965 774.893 390.192 785.893C378.464 785.395 377.927 785.625 375.858 781.294ZM521.499 622.316C520.962 610.818 521.499 602.807 523.3 602.002C529.892 599.013 542.195 598.17 555.878 602.501C557.602 603.076 563.121 605.95 568.679 608.288C569.292 620.553 568.679 633.545 572.511 645.426C569.123 651.367 564.771 656.703 559.634 661.217C536.446 664.283 522.533 645.733 521.422 622.316H521.499ZM556.682 851.508C555.763 853.271 571.361 864.999 573.048 866.264C578.567 871.476 571.821 874.312 566.226 869.292C535.564 841.735 509.426 810.154 475.354 791.297C495.207 790.646 519.774 789.917 523.99 789.879C528.244 793.98 577.647 840.24 590.41 851.202C554.766 851.47 557.027 850.895 556.606 851.508H556.682ZM594.319 850.972C593.936 850.627 529.164 792.102 526.673 789.189C525.216 786.736 498.349 695.558 492.179 677.199C495.965 679.781 498.772 683.561 500.151 687.931C502.45 694.484 528.551 781.869 528.666 782.29C528.979 784.413 529.928 786.39 531.387 787.963C541.467 797.659 584.239 836.446 598.152 847.944C597.347 848.94 596.542 849.937 595.775 850.972H594.319ZM591.521 814.14C584.852 813.603 582.744 812.837 581.096 814.868C580.56 815.711 579.027 817.589 577.072 817.168C576.733 817.089 576.414 816.941 576.135 816.733C575.856 816.525 575.623 816.261 575.45 815.959C575.277 815.657 575.169 815.322 575.132 814.976C575.094 814.63 575.128 814.28 575.232 813.948C577.11 812.185 579.065 810.652 580.828 808.774C580.922 808.642 580.97 808.481 580.962 808.319C580.955 808.157 580.894 808.001 580.788 807.878C580.682 807.755 580.538 807.67 580.378 807.638C580.219 807.606 580.054 807.628 579.908 807.701C577.954 808.966 576.076 810.997 573.853 812.338C573.669 812.341 573.488 812.383 573.323 812.463C573.157 812.542 573.011 812.657 572.895 812.798C572.435 812.985 571.939 813.062 571.445 813.026C570.951 812.989 570.472 812.839 570.046 812.586C569.619 812.334 569.257 811.987 568.986 811.572C568.716 811.156 568.545 810.684 568.487 810.192C568.487 807.126 571.783 805.095 573.699 802.833C574.466 802.067 573.316 800.917 572.511 801.645C570.458 803.379 568.548 805.276 566.801 807.318C564.592 808.02 562.339 808.571 560.055 808.966C559.02 808.966 560.055 809.617 555.533 805.746C560.248 801.323 565.382 797.37 570.863 793.942C580.177 787.809 581.901 798.426 590.295 799.652C590.287 804.508 590.697 809.355 591.521 814.14ZM600.145 845.721L561.55 811.227C562.949 810.951 564.332 810.592 565.689 810.154C565.658 810.986 565.821 811.814 566.166 812.572C566.51 813.331 567.026 813.998 567.673 814.523C568.32 815.047 569.08 815.413 569.893 815.593C570.706 815.773 571.55 815.761 572.358 815.558C572.511 816.371 572.855 817.136 573.36 817.791C573.865 818.446 574.518 818.973 575.265 819.327C576.012 819.682 576.833 819.856 577.659 819.833C578.486 819.811 579.296 819.594 580.023 819.199C585.312 816.784 580.023 815.865 588.57 816.631C589.682 816.631 590.87 816.861 592.019 816.899C592.364 818.701 592.709 820.349 593.093 821.92C593.185 822.234 593.377 822.508 593.64 822.702C593.903 822.896 594.222 822.998 594.549 822.993C663.077 821.537 629.426 812.07 600.068 845.721H600.145ZM508.161 702.993C503.83 688.467 501.569 676.739 492.83 673.75C492.83 674.21 496.088 673.251 382.642 677.582C382.642 658.917 381.837 613.769 381.722 606.908H519.122C518.049 623.504 519.122 641.402 530.62 653.743C529.241 654.28 526.788 655.43 526.213 656.388C527.626 662.582 529.523 668.656 531.885 674.555C521.602 681.811 513.376 691.609 508.008 702.993H508.161ZM492.409 584.526C492.409 579.16 491.182 550.3 490.914 545.011H500.687C500.687 550.453 501.416 579.198 501.646 584.487C498.579 584.411 495.475 584.449 492.409 584.526ZM436.26 585.675C436.299 575.251 434.957 487.1 434.766 475.602H444.539C444.539 504.73 445.382 577.588 445.535 585.522L436.26 585.675ZM375.781 490.396H385.593C385.593 515.576 386.398 579.16 386.589 586.71H377.314C377.353 577.282 376.011 500.897 375.781 490.396ZM292.574 593.571C292.038 590.313 287.592 488.249 285.79 449.156C285.369 437.122 288.55 422.328 296.637 415.467C296.637 442.296 300.086 590.351 300.853 603.765C298.597 603.115 296.595 601.789 295.115 599.966C293.635 598.144 292.748 595.912 292.574 593.571ZM644.22 561.721C643.905 559.219 644.504 556.688 645.907 554.593C648.907 552.23 652.128 550.164 655.527 548.422C651.694 555.321 652.69 553.404 654.722 674.516C651.56 672.107 648.272 669.868 644.872 667.809C644.488 648.493 644.297 578.278 644.335 561.721H644.22ZM677.718 604.302C679.499 601.774 681.865 599.715 684.615 598.3C687.365 596.885 690.416 596.157 693.508 596.177C709.107 596.177 714.779 614.727 717.845 629.828C720.528 641.67 720.72 655.621 729.343 665.28C769.433 701.613 772.461 650.907 796.836 652.862C804.502 653.743 809.599 660.757 815.08 665.816C817.423 668.448 820.709 670.049 824.226 670.271C827.742 670.493 831.204 669.32 833.86 667.004V721.466C824.432 721.466 704.699 720.585 691.553 720.738C688.353 714.04 684.583 707.628 680.285 701.575C680.745 696.937 677.909 608.441 677.833 604.302H677.718ZM693.048 723.344C710.678 723.613 822.554 723.919 834.166 723.919C834.183 725.379 834.273 726.837 834.435 728.288C834.463 728.597 834.603 728.885 834.829 729.097C835.055 729.309 835.351 729.43 835.661 729.438C837.922 729.438 836.888 732.926 836.504 628.984C836.504 628.73 836.403 628.487 836.224 628.307C836.044 628.127 835.8 628.026 835.546 628.026C835.292 628.026 835.048 628.127 834.869 628.307C834.689 628.487 834.588 628.73 834.588 628.984C834.588 635.806 834.166 658.342 834.128 662.788C833.249 664.174 832.053 665.331 830.64 666.165C829.227 667 827.637 667.487 825.999 667.588C824.361 667.689 822.722 667.401 821.217 666.746C819.713 666.092 818.384 665.09 817.341 663.823C806.265 652.325 795.303 642.744 779.283 657.538C766.175 671.067 758.97 682.488 740.956 670.799C733.663 666.912 728.166 660.343 725.626 652.479C719.57 630.747 721.257 597.212 695.654 592.766C692.231 592.416 688.775 592.911 685.588 594.207C682.4 595.503 679.58 597.561 677.373 600.201C677.373 594.375 676.951 588.703 676.721 582.801C676.721 582.557 676.624 582.323 676.452 582.15C676.279 581.978 676.045 581.881 675.801 581.881C675.557 581.881 675.323 581.978 675.151 582.15C674.978 582.323 674.881 582.557 674.881 582.801C674.881 589.163 676.874 678.004 677.488 697.512C671.581 689.783 664.79 682.772 657.251 676.624C657.251 662.022 655.948 567.202 655.795 561.338C655.565 550.683 659.819 544.513 669.631 541.945C677.679 539.722 822.4 537.499 836.159 539.377C845.281 540.527 850.494 549.457 851.797 557.199C853.406 566.819 853.866 725.835 853.905 727.943C854.211 746.723 851.988 768.148 832.442 770.793C828.034 771.406 718.995 771.674 703.166 771.521C703.656 754.896 700.216 738.389 693.125 723.344H693.048ZM580.828 425.011C585.427 433.059 582.821 430.836 586.079 563.216C570.212 556.049 547.752 562.641 532.422 570.881V457.32C532.422 456.438 534.415 456.707 520.924 456.707C520.081 456.707 520.157 448.811 522.993 577.244C520.693 579.32 518.694 581.706 517.053 584.334H504.175C504.175 579.351 502.719 544.014 502.565 543.708C502.521 543.509 502.409 543.331 502.248 543.205C502.087 543.079 501.888 543.013 501.684 543.018C497.543 542.879 493.397 542.969 489.266 543.286C489.143 543.37 489.046 543.486 488.986 543.621C488.925 543.756 488.902 543.906 488.921 544.053C488.921 547.885 489.611 579.007 489.879 584.526L475.43 584.832C476.158 519.37 476.427 522.82 475.43 522.743C465.044 523.165 464.814 522.973 464.814 523.74V585.062L447.95 585.407C447.95 576.86 446.647 480.277 446.379 474.682C446.39 474.43 446.305 474.183 446.142 473.991C445.978 473.799 445.748 473.676 445.497 473.647C445.497 473.647 433.501 473.647 433.118 474.03C432.006 474.912 433.731 581.344 433.731 585.714L415.526 586.059V528.837C415.39 528.784 415.24 528.784 415.104 528.837C404.526 528.837 404.641 528.837 404.641 529.68V586.289L389.08 586.749C388.007 487.789 387.126 489.591 387.509 489.591C387.511 489.345 387.422 489.108 387.259 488.924C387.096 488.74 386.871 488.623 386.628 488.594C386.628 488.594 374.708 488.594 374.325 488.901C373.022 489.706 374.861 580.233 374.861 587.055L353.782 587.438C353.897 438.08 354.318 444.94 353.322 444.94L343.932 445.285C343.28 445.285 343.51 436.125 343.51 587.592C327.72 587.898 328.18 587.592 327.95 588.205C327.876 588.324 327.835 588.461 327.83 588.601C327.826 588.742 327.858 588.881 327.924 589.005C327.99 589.129 328.087 589.233 328.206 589.308C328.325 589.383 328.461 589.426 328.601 589.431C351.865 589.431 492.754 588.013 515.711 587.323C513.412 593.187 513.833 599.665 519.161 603.076V603.919C497.008 604.57 307.445 603.919 304.034 603.919C304.034 598.898 299.741 423.554 299.703 413.743C326.263 413.743 560.323 414.087 566.417 415.084C569.405 415.568 572.247 416.709 574.739 418.426C577.232 420.143 579.311 422.392 580.828 425.011ZM163.069 597.097C158.661 603.459 158.431 611.737 158.431 619.748C158.431 621.511 163.797 810.154 164.602 814.753C165.06 818.091 166.228 821.292 168.026 824.141C169.824 826.99 172.211 829.422 175.027 831.272C170.522 831.045 166.118 829.856 162.111 827.784C153.602 823.108 150.383 813.488 149.233 808.161C147.202 798.579 144.519 634.005 144.979 625.497C144.711 611.392 149.501 603.765 162.992 597.097H163.069ZM737.967 1030.53C753.307 1029.46 768.335 1025.67 782.349 1019.34C792.314 1014.74 804.732 1007.46 809.867 1001.67C810.672 1019.76 806.993 1031.45 788.405 1040C763.799 1051.5 705.428 1065.6 680.209 1048.77C677.948 1046.59 672.543 1029.99 670.397 1022.33C681.397 1029.65 713.438 1032.49 737.89 1030.53H737.967ZM391.342 1080.74C388.122 1080.47 386.589 1083.69 385.516 1086.03C376.548 1105.19 376.663 1106.42 367.541 1107.03C364.666 1107.22 337.608 1109.45 335.615 1109.45C328.64 1109.94 324.769 1105.15 329.713 1099.29C332.531 1097.16 335.659 1095.48 338.988 1094.31C349.642 1089.36 366.506 1076.29 370.224 1060.12C374.071 1064.64 379.319 1067.74 385.133 1068.93C392.331 1069.71 399.591 1068.22 405.906 1064.68C404.449 1072.96 401.077 1098.75 400.655 1106.84C398.415 1106.6 396.162 1106.5 393.91 1106.53C393.871 1104.35 393.143 1080.89 391.265 1080.74H391.342ZM405.446 1061C400.465 1064.52 394.49 1066.36 388.391 1066.25C385.164 1066.01 382.022 1065.1 379.16 1063.59C376.299 1062.08 373.779 1060 371.757 1057.47C371.757 1056.29 371.335 1043.45 371.45 1036.55C383.868 1037.53 396.333 1037.77 408.78 1037.28C408.167 1040.65 406.212 1054.33 405.369 1061H405.446Z" fill="black"/>
<path d="M786.988 566.282C787.205 566.238 787.399 566.121 787.539 565.95C787.679 565.779 787.756 565.564 787.756 565.343C787.756 565.122 787.679 564.908 787.539 564.737C787.399 564.566 787.205 564.448 786.988 564.404H780.549C732.373 565.899 733.944 565.861 733.983 567.202C734.021 568.544 732.526 568.85 786.988 566.282ZM788.598 575.251C780.013 575.251 746.439 575.711 737.815 576.4C737.513 576.453 737.238 576.61 737.041 576.845C736.843 577.08 736.735 577.377 736.735 577.684C736.735 577.991 736.843 578.289 737.041 578.523C737.238 578.758 737.513 578.916 737.815 578.968C746.592 578.968 779.974 577.244 788.636 576.899C788.824 576.854 788.99 576.746 789.108 576.593C789.225 576.44 789.287 576.252 789.282 576.059C789.278 575.867 789.207 575.681 789.083 575.534C788.958 575.387 788.787 575.287 788.598 575.251ZM780.166 589.355C774.187 589.585 754.985 589.355 736.665 589.355C736.259 589.355 735.869 589.516 735.581 589.804C735.294 590.091 735.132 590.481 735.132 590.888C735.132 591.295 735.294 591.684 735.581 591.972C735.869 592.259 736.259 592.421 736.665 592.421C740.498 592.689 776.448 591.195 780.204 591.041C780.428 591.036 780.64 590.942 780.795 590.781C780.949 590.619 781.033 590.402 781.028 590.179C781.023 589.955 780.93 589.743 780.768 589.588C780.606 589.434 780.39 589.35 780.166 589.355ZM656.678 397.837C652.187 398.94 648.079 401.241 644.792 404.494C641.505 407.747 639.162 411.831 638.013 416.311C633.759 432.599 648.514 450.344 665.493 447.508C669.203 446.725 672.715 445.192 675.812 443.004C678.91 440.816 681.528 438.019 683.507 434.784C685.44 431.213 686.537 427.251 686.717 423.194C686.896 419.138 686.152 415.094 684.541 411.366C682.242 404.774 675.42 394.234 656.678 397.837ZM665.953 430.146C658.556 435.244 649.894 425.969 653.305 420.258C659.437 410.063 670.322 417.767 670.59 421.6C670.586 423.301 670.156 424.975 669.34 426.468C668.523 427.961 667.345 429.225 665.915 430.146H665.953ZM665.493 412.708C662.906 411.894 660.123 411.96 657.578 412.896C655.033 413.833 652.87 415.586 651.427 417.882C650.248 419.949 649.803 422.354 650.165 424.707C650.527 427.059 651.674 429.219 653.42 430.836C654.811 432.171 656.521 433.127 658.387 433.612C660.253 434.098 662.212 434.096 664.077 433.608C665.942 433.119 667.651 432.16 669.04 430.823C670.428 429.486 671.45 427.814 672.009 425.969C675.279 428.114 678.938 429.598 682.778 430.338C681.421 433.649 679.34 436.614 676.687 439.014C674.034 441.415 670.877 443.191 667.448 444.212C652.117 448.658 638.473 434.746 640.198 419.722C640.703 416.223 641.996 412.884 643.98 409.958C645.964 407.032 648.587 404.594 651.65 402.83C654.714 401.066 658.138 400.02 661.665 399.773C665.192 399.525 668.729 400.082 672.009 401.402C668.974 404.609 666.729 408.48 665.455 412.708H665.493Z" fill="black"/>
<path d="M622.187 463.644C631.538 463.145 802.781 461.842 815.276 458.125C824.896 456.362 828.192 451.916 827.693 442.219C827.693 439 828.23 402.091 827.234 395.537C826.352 387.451 822.021 383.618 812.899 383.12C805.234 382.391 627.591 385.151 619.197 386.952C612.375 388.294 607.699 390.785 606.779 398.45C606.358 400.788 608.197 444.059 608.427 448.275C608.964 457.396 613.525 462.801 622.187 463.644ZM637.134 461.038C634.877 460.766 632.709 459.995 630.787 458.782C628.865 457.569 627.236 455.944 626.019 454.024C623.318 449.371 621.927 444.073 621.995 438.693C621.573 432.178 620.347 408.032 620.194 402.206C620.194 399.83 620.194 391.935 626.019 389.099C635.026 388.179 802.82 385.688 809.987 385.918C813.819 385.918 818.993 386.224 821.906 389.175C826.199 393.506 824.819 400.673 825.087 441.874C825.93 452.376 821.944 454.675 812.133 456.093C803.318 457.435 638.667 461.038 637.211 461.038H637.134ZM617.587 397.339C617.089 400.788 619.12 433.749 619.312 438.118C619.772 448.965 622.876 456.668 629.009 461.114H625.176C615.824 461.114 611.57 456.63 611.149 447.087C610.919 441.644 609.156 401.095 609.539 398.795C610.344 391.82 615.058 390.287 621.305 389.52C619.368 391.724 618.105 394.438 617.664 397.339H617.587Z" fill="black"/>
<path d="M708.032 407.265C709.45 407.265 753.449 406.154 753.066 406.154C753.263 406.112 753.44 406.003 753.568 405.847C753.695 405.69 753.764 405.494 753.764 405.292C753.764 405.09 753.695 404.894 753.568 404.737C753.44 404.58 753.263 404.471 753.066 404.429C749.808 404.429 711.826 403.778 707.955 404.429C707.66 404.536 707.406 404.733 707.229 404.993C707.052 405.252 706.962 405.561 706.97 405.875C706.979 406.189 707.086 406.492 707.276 406.742C707.467 406.991 707.731 407.175 708.032 407.265ZM766.556 419.3C761.037 419.836 705.617 417.958 705.234 420.756C705.234 421.293 705.732 421.714 706.116 421.791C710.945 422.366 766.365 421.178 766.748 421.14C766.869 421.127 766.986 421.091 767.093 421.033C767.2 420.975 767.294 420.897 767.37 420.802C767.447 420.708 767.504 420.6 767.539 420.483C767.573 420.367 767.585 420.245 767.572 420.124C767.56 420.003 767.523 419.886 767.465 419.779C767.408 419.672 767.329 419.578 767.235 419.502C767.141 419.425 767.032 419.368 766.916 419.333C766.799 419.299 766.677 419.287 766.556 419.3ZM765.445 434.017C755.978 434.017 708.262 433.787 705.771 434.209C705.525 434.274 705.308 434.418 705.154 434.619C704.999 434.82 704.915 435.067 704.915 435.32C704.915 435.574 704.999 435.821 705.154 436.022C705.308 436.223 705.525 436.367 705.771 436.432C708.415 436.853 761.574 435.627 765.483 435.512C765.652 435.469 765.801 435.371 765.906 435.232C766.011 435.093 766.066 434.923 766.061 434.749C766.057 434.576 765.993 434.408 765.881 434.275C765.769 434.142 765.616 434.051 765.445 434.017ZM223.585 679.537C249.532 677.429 263.291 644.008 243.131 625.458C242.403 624.807 243.783 623.35 222.55 654.05C196.871 629.713 198.251 630.632 197.676 631.054C177.363 651.099 197.484 681.683 223.585 679.537Z" fill="black"/>
<path d="M220.753 641.479C221.481 642.284 221.136 642.399 238.498 613.117C238.54 613.052 238.568 612.979 238.581 612.903C238.593 612.827 238.591 612.749 238.573 612.674C238.555 612.599 238.522 612.528 238.476 612.466C238.431 612.404 238.373 612.352 238.306 612.312C232.184 609.09 225.169 607.978 218.35 609.15C211.531 610.321 205.29 613.709 200.593 618.789C200.133 619.364 199.443 618.253 220.753 641.479ZM180.701 783.479C181.685 783.472 182.644 783.175 183.458 782.625C184.273 782.075 184.906 781.296 185.279 780.386C185.652 779.476 185.748 778.477 185.554 777.513C185.36 776.549 184.885 775.665 184.189 774.97C186.106 771.866 198.523 751.438 202.164 745.919C203.108 746.355 204.161 746.497 205.187 746.326C206.212 746.155 207.162 745.679 207.913 744.96L225.62 758.605C225.331 759.459 225.28 760.375 225.471 761.257C225.662 762.138 226.089 762.951 226.706 763.608C227.323 764.266 228.107 764.744 228.974 764.991C229.841 765.239 230.759 765.246 231.63 765.013C232.501 764.779 233.292 764.314 233.919 763.666C234.547 763.018 234.987 762.213 235.192 761.335C235.397 760.457 235.36 759.539 235.085 758.681C234.81 757.822 234.308 757.054 233.63 756.458L239.916 748.18C241.041 748.695 242.316 748.776 243.498 748.408C244.679 748.04 245.683 747.249 246.317 746.187L264.637 752.396C264.538 753.22 264.646 754.056 264.953 754.828C265.259 755.6 265.753 756.283 266.391 756.815C267.028 757.347 267.788 757.711 268.602 757.875C269.416 758.038 270.258 757.996 271.052 757.751C271.845 757.506 272.565 757.067 273.145 756.474C273.726 755.88 274.149 755.151 274.376 754.352C274.603 753.554 274.627 752.711 274.445 751.901C274.264 751.09 273.883 750.338 273.337 749.713C274.87 744.232 288.131 703.721 289.472 699.888C290.759 699.776 291.953 699.172 292.807 698.202C296.448 701.077 307.371 709.24 310.897 711.616C310.695 712.41 310.692 713.24 310.888 714.035C311.084 714.83 311.473 715.564 312.02 716.173C312.567 716.782 313.255 717.246 314.025 717.526C314.794 717.805 315.62 717.891 316.43 717.775C317.241 717.659 318.01 717.346 318.67 716.862C319.331 716.378 319.862 715.74 320.216 715.002C320.571 714.264 320.738 713.451 320.704 712.633C320.669 711.815 320.434 711.018 320.018 710.313C330.213 694.063 330.673 694.331 329.6 693.603C329.398 693.478 329.157 693.432 328.923 693.474C328.69 693.517 328.48 693.645 328.335 693.833C326.534 696.439 318.025 708.397 318.025 708.397C317.119 707.951 316.101 707.782 315.099 707.911C314.096 708.041 313.155 708.463 312.391 709.125C308.827 706.634 297.521 698.547 293.918 695.749C294.072 694.865 293.984 693.955 293.664 693.116C293.343 692.278 292.802 691.541 292.098 690.985C291.393 690.428 290.551 690.073 289.661 689.955C288.771 689.838 287.866 689.963 287.041 690.318C286.216 690.672 285.503 691.243 284.976 691.97C284.449 692.697 284.128 693.552 284.047 694.447C283.966 695.341 284.129 696.24 284.517 697.049C284.905 697.859 285.505 698.549 286.253 699.045C282.957 708.014 273.375 739.058 270.922 748.103C270.001 747.866 269.032 747.89 268.125 748.175C267.217 748.459 266.407 748.992 265.786 749.713C261.954 748.41 250.456 744.922 246.968 743.811C246.968 742.499 246.447 741.242 245.52 740.315C244.593 739.387 243.335 738.866 242.024 738.866C240.713 738.866 239.455 739.387 238.528 740.315C237.601 741.242 237.08 742.499 237.08 743.811C237.088 744.905 237.451 745.968 238.115 746.838L231.254 755.385C230.597 755.241 229.917 755.235 229.258 755.367C228.598 755.499 227.973 755.766 227.422 756.152L209.14 742.316C209.339 741.129 209.099 739.911 208.465 738.889C207.831 737.867 206.845 737.111 205.694 736.763C204.542 736.415 203.303 736.499 202.209 736.999C201.115 737.499 200.24 738.381 199.75 739.48C199.369 740.27 199.213 741.149 199.301 742.022C199.389 742.895 199.717 743.726 200.248 744.424C196.645 749.828 183.576 770.716 181.698 773.744C181.01 773.571 180.293 773.548 179.596 773.677C178.898 773.806 178.237 774.083 177.656 774.49C177.075 774.897 176.589 775.425 176.23 776.036C175.871 776.648 175.647 777.33 175.575 778.035C175.503 778.741 175.583 779.454 175.811 780.126C176.039 780.797 176.408 781.412 176.894 781.928C177.381 782.445 177.972 782.85 178.629 783.118C179.286 783.385 179.993 783.508 180.701 783.479ZM247.39 797.046C247.105 797.046 246.832 797.159 246.631 797.36C246.43 797.562 246.317 797.835 246.317 798.119C246.317 798.404 246.43 798.677 246.631 798.878C246.832 799.079 247.105 799.192 247.39 799.192C254.097 799.192 332.82 796.126 335.541 796.088C335.719 796.048 335.879 795.949 335.994 795.806C336.109 795.663 336.171 795.485 336.171 795.302C336.171 795.119 336.109 794.942 335.994 794.799C335.879 794.656 335.719 794.556 335.541 794.517C324.848 794.555 254.25 796.28 247.39 797.046ZM281.079 769.643C281.323 769.643 281.557 769.546 281.729 769.373C281.902 769.201 281.999 768.967 281.999 768.723C281.999 768.479 281.902 768.245 281.729 768.072C281.557 767.9 281.323 767.803 281.079 767.803C278.051 767.803 267.089 767.151 264.522 767.266C264.074 767.266 263.645 767.444 263.329 767.76C263.013 768.077 262.835 768.506 262.835 768.953C262.835 769.4 263.013 769.829 263.329 770.145C263.645 770.462 264.074 770.639 264.522 770.639C267.051 770.946 277.898 769.911 281.079 769.643ZM240.108 774.548H223.589C223.232 774.565 222.886 774.678 222.587 774.874C222.288 775.071 222.048 775.344 221.891 775.666C221.734 775.987 221.667 776.345 221.696 776.701C221.725 777.057 221.849 777.399 222.056 777.691C223.091 779.224 223.895 778.036 240.184 776.656C240.386 776.56 240.556 776.406 240.672 776.214C240.788 776.023 240.846 775.801 240.837 775.577C240.829 775.353 240.756 775.137 240.626 774.954C240.497 774.771 240.316 774.63 240.108 774.548ZM174.761 795.015C175.566 795.015 187.217 793.75 189.785 793.635C190.069 793.635 190.342 793.522 190.544 793.321C190.745 793.12 190.858 792.847 190.858 792.562C190.858 792.277 190.745 792.004 190.544 791.803C190.342 791.602 190.069 791.489 189.785 791.489C188.29 791.489 175.336 792.025 174.454 792.447C174.22 792.588 174.032 792.793 173.912 793.039C173.792 793.284 173.745 793.559 173.778 793.83C173.81 794.101 173.92 794.357 174.094 794.568C174.269 794.778 174.5 794.933 174.761 795.015Z" fill="black"/>
<path d="M310.014 728.556H310.628C326.916 727.1 326.342 728.211 327.031 727.445C327.159 727.295 327.242 727.112 327.273 726.918C327.303 726.723 327.28 726.524 327.205 726.342C327.129 726.16 327.005 726.002 326.846 725.885C326.688 725.769 326.5 725.699 326.303 725.682C320.593 725.682 315.227 725.184 310.091 725.414C307.907 725.452 308.098 728.556 310.014 728.556ZM224.316 695.097C223.9 695.097 223.5 695.263 223.205 695.558C222.911 695.852 222.745 696.252 222.745 696.669C222.745 697.086 222.911 697.485 223.205 697.78C223.5 698.075 223.9 698.24 224.316 698.24C229.797 698.24 251.145 696.286 256.319 695.749C256.564 695.702 256.785 695.571 256.944 695.379C257.103 695.186 257.19 694.945 257.19 694.695C257.19 694.445 257.103 694.204 256.944 694.011C256.785 693.819 256.564 693.688 256.319 693.641C250.992 694.063 229.605 694.637 224.316 695.097ZM221.71 704.066C221.402 704.142 221.132 704.329 220.952 704.59C220.771 704.851 220.692 705.17 220.73 705.485C220.768 705.8 220.919 706.091 221.156 706.303C221.393 706.514 221.699 706.632 222.017 706.634C228.072 706.634 251.835 704.487 257.814 704.449C258.078 704.449 258.331 704.344 258.518 704.157C258.705 703.97 258.81 703.717 258.81 703.453C258.81 703.188 258.705 702.935 258.518 702.748C258.331 702.561 258.078 702.456 257.814 702.456C245.757 702.191 233.696 702.728 221.71 704.066ZM254.748 710.198C244.718 710.053 234.687 710.45 224.7 711.386C222.86 711.616 222.783 714.414 224.7 714.414C228.111 714.414 246.737 712.498 254.786 712.191C254.917 712.189 255.046 712.16 255.166 712.108C255.286 712.055 255.394 711.98 255.485 711.886C255.576 711.791 255.647 711.68 255.695 711.558C255.743 711.436 255.766 711.306 255.763 711.175C255.761 711.044 255.733 710.915 255.68 710.795C255.628 710.676 255.552 710.567 255.458 710.476C255.364 710.386 255.252 710.314 255.13 710.267C255.009 710.219 254.879 710.196 254.748 710.198ZM267.357 627.643C269.235 627.643 288.36 625.65 292.116 625.381C292.38 625.381 292.634 625.276 292.821 625.09C293.008 624.903 293.112 624.649 293.112 624.385C293.112 624.121 293.008 623.867 292.821 623.68C292.634 623.493 292.38 623.388 292.116 623.388C290.238 623.388 269.733 624.002 267.472 624.155C265.211 624.308 265.211 627.643 267.357 627.643ZM271.305 635.385C277.322 635.385 300.778 633.162 306.718 632.778C306.935 632.734 307.13 632.617 307.27 632.446C307.41 632.275 307.486 632.06 307.486 631.839C307.486 631.618 307.41 631.404 307.27 631.233C307.13 631.062 306.935 630.944 306.718 630.9C300.739 631.169 277.13 631.284 271.266 631.897C270.849 631.964 270.469 632.178 270.197 632.501C269.924 632.824 269.776 633.235 269.781 633.657C269.786 634.08 269.942 634.487 270.222 634.804C270.502 635.121 270.886 635.327 271.305 635.385Z" fill="black"/>
<path fill-rule="evenodd" clip-rule="evenodd" d="M716 25C716 11.1929 704.807 0 691 0H309C295.193 0 284 11.1929 284 25V25C284 38.8071 295.193 50 309 50H337C366.271 50 390 73.7289 390 103V150C390 205.228 434.772 250 490 250H510C565.228 250 610 205.228 610 150V103C610 73.7289 633.729 50 663 50H691C704.807 50 716 38.8071 716 25V25Z" fill="#4CAF50"/>
<path d="M448.621 203V71.75H499.996C509.371 71.75 517.808 73.3125 525.308 76.4375C532.933 79.5625 539.433 84.0625 544.808 89.9375C550.183 95.8125 554.308 102.75 557.183 110.75C560.058 118.75 561.496 127.625 561.496 137.375C561.496 147.125 560.058 156.062 557.183 164.187C554.308 172.187 550.183 179.125 544.808 185C539.558 190.75 533.121 195.187 525.496 198.312C517.871 201.437 509.371 203 499.996 203H448.621ZM468.871 185.562L468.308 183.5H499.058C505.683 183.5 511.558 182.437 516.683 180.312C521.933 178.187 526.308 175.187 529.808 171.312C533.433 167.312 536.183 162.437 538.058 156.687C539.933 150.937 540.871 144.5 540.871 137.375C540.871 130.25 539.933 123.875 538.058 118.25C536.183 112.5 533.433 107.625 529.808 103.625C526.183 99.625 521.808 96.5625 516.683 94.4375C511.558 92.3125 505.683 91.25 499.058 91.25H467.746L468.871 89.5625V185.562Z" fill="white"/>
</g>
<defs>
<clipPath id="clip0_19_105">
<rect width="1000" height="1400" fill="white"/>
</clipPath>
</defs>
</svg>
