<svg width="1000" height="1400" viewBox="0 0 1000 1400" fill="none" xmlns="http://www.w3.org/2000/svg">
<g clip-path="url(#clip0_19_67)">
<rect width="1000" height="1400" fill="white"/>
<rect x="-147" y="-263" width="1295" height="1926" fill="#EF5350"/>
<rect x="50" y="50" width="900" height="1300" rx="50" fill="white"/>
<path d="M347.5 631L351 636L370 635L369 623H348.5L347.5 631Z" fill="#EF5350" stroke="#EF5350"/>
<path d="M572.129 399.35L589.434 384.609L595.202 389.095L610.584 403.836L623.402 425.627L633.016 454.468L636.221 480.746C636.434 481.173 634.426 481.771 624.684 480.746C614.942 479.72 601.825 479.464 596.484 479.464L568.925 480.746L541.365 485.232L543.288 469.85L548.415 448.059L558.029 422.423L572.129 399.35Z" fill="#FBBC04" stroke="black"/>
<path d="M541.365 530.737L545.211 634.565L551.62 616.619L556.747 594.828V566.628L558.67 542.914L565.079 523.046L577.897 507.023L588.793 502.537L600.97 507.023L616.352 530.737L625.966 566.628L627.248 596.751L643.912 643.538V606.365L641.989 556.373L640.707 528.173L636.221 480.746H619.557H565.079L541.365 483.95V530.737Z" fill="#4CAF50"/>
<path d="M506.756 698.657L508.038 731.343L497.142 732.625L493.297 662.765L489.451 580.728L542.647 576.883L545.211 637.129L543.929 641.615L525.983 674.302L506.756 698.657Z" fill="#4285F4"/>
<path d="M686.181 697.288L687.493 731.984L699.03 730.702L698.311 660.926L699.672 575.601L643.911 573.678L645.488 637.217L644.555 645.461L665.065 674.943L686.181 697.288Z" fill="#EF5350"/>
<path d="M528.565 821.224C527.563 809.268 527.192 797.268 527.454 785.273C527.454 784.277 525.997 784.009 525.882 785.273C524.63 797.296 524.758 809.422 526.266 821.415C526.291 821.72 526.437 822.003 526.67 822.2C526.904 822.398 527.206 822.495 527.511 822.469C527.816 822.444 528.099 822.298 528.296 822.065C528.494 821.831 528.591 821.529 528.565 821.224ZM511.203 816.74C511.273 816.895 511.386 817.027 511.529 817.12C511.671 817.212 511.838 817.262 512.008 817.262C512.178 817.262 512.345 817.212 512.488 817.12C512.631 817.027 512.744 816.895 512.813 816.74C512.276 804.667 511.778 792.555 511.242 780.444C511.242 780.241 511.161 780.046 511.017 779.902C510.873 779.758 510.678 779.678 510.475 779.678C510.272 779.678 510.077 779.758 509.933 779.902C509.789 780.046 509.709 780.241 509.709 780.444C509.198 789.588 509.3 798.756 510.015 807.886C510.04 810.875 510.44 813.849 511.203 816.74ZM611.658 818.273C612.033 824.193 611.372 830.133 609.703 835.826C609.703 836.708 612.271 841.575 613.88 827.586C614.89 818.137 612.92 808.61 608.246 800.336C607.748 799.416 606.445 800.336 606.867 801.141C609.519 806.502 611.144 812.313 611.658 818.273ZM565.206 541.209C565.179 544.093 566.154 546.897 567.965 549.143C570.265 551.212 573.829 543.164 584.522 541.899V531.551C577.062 532.097 570.119 535.568 565.206 541.209ZM665.966 818.043C665.966 810.147 665.277 802.29 665.123 794.395C665.123 793.322 663.475 793.552 663.475 794.625C663.475 802.789 663.475 811.029 663.82 819.231C663.973 824.635 666.081 822.642 665.966 818.043ZM591.689 531.359L591.919 541.707C605.142 542.167 608.975 552.132 610.393 549.028C611.006 547.61 613.497 540.519 612.156 539.293C606.529 534.241 599.251 531.42 591.689 531.359ZM316.619 469.155C314.626 470.228 316.619 474.942 318.19 473.907C319.762 472.873 318.803 467.89 316.619 469.155ZM314.089 457.619C311.406 457.887 311.33 460.646 314.089 460.991C316.088 461.147 318.027 461.749 319.762 462.754C320.796 463.444 321.908 462.065 321.295 461.106C320.505 459.944 319.424 459.01 318.159 458.398C316.894 457.786 315.491 457.517 314.089 457.619ZM307.229 471.11C308.254 473.8 309.062 476.568 309.643 479.388C310.295 482.684 310.257 483.566 310.103 483.757C309.484 483.777 308.868 483.854 308.264 483.987C307.152 484.371 307.152 485.789 308.877 486.594C309.345 486.83 309.873 486.92 310.392 486.852C310.912 486.783 311.399 486.56 311.79 486.21C313.783 484.294 312.939 478.89 309.337 470.151C309.21 469.872 308.977 469.654 308.689 469.547C308.402 469.439 308.083 469.45 307.804 469.577C307.524 469.704 307.307 469.937 307.199 470.224C307.091 470.512 307.102 470.83 307.229 471.11Z" fill="black"/>
<path d="M862.737 932.792H808.352C813.372 905.963 783.554 887.068 765.004 896.957C763.099 887.66 757.865 879.38 750.286 873.67C742.706 867.961 733.302 865.216 723.841 865.95C722.832 859.365 720.341 853.094 716.557 847.61C712.773 842.127 707.794 837.573 701.995 834.293C700.194 812.83 700.999 790.983 701.037 769.789C704.295 770.019 712.113 770.747 710.848 767.642C707.016 758.137 700.462 742.27 695.518 733.148C697.511 733.148 699.772 733.148 699.772 731.117C700.385 694.324 701.573 617.134 701.573 617.134C702.187 571.448 703.72 518.941 671.64 481.342C670.644 480.154 669.264 479.733 668.383 480.959C655.332 499.435 646.752 520.69 643.317 543.048C642.014 521.202 640.289 496.52 636.916 472.106C631.167 430.674 617.293 402.849 594.757 386.33C592.611 384.759 589.468 382.229 588.05 383.226C552.866 408.138 542.518 451.601 540.065 483.68C539.183 497.324 538.915 511.16 539.26 524.881C534.546 507.289 518.372 472.949 512.431 481.227C484.759 520.857 487.097 572.061 489.435 617.249C493.268 703.33 494.418 725.521 494.916 731.309C494.916 733.187 494.916 734.452 500.205 733.877C489.052 763.427 486.752 768.371 487.749 769.214C488.745 770.057 492.693 769.789 494.609 769.674C494.341 782.59 497.407 845.369 496.986 848.703C494.203 852.092 491.966 855.893 490.355 859.971C483.822 861.749 477.758 864.939 472.593 869.317C467.427 873.694 463.286 879.152 460.46 885.305C455.362 884.806 450.221 885.652 445.551 887.758C440.952 836.745 431.524 759.632 419.987 708.274C439.726 710.842 449.154 701.989 453.715 694.324C465.213 674.279 457.547 640.973 443.29 622.538C431.222 596.864 413.524 574.241 391.511 556.348C393.849 551.902 387.678 531.703 372.002 523.387C365.295 519.822 356.365 519.554 352.264 515.721C343.487 507.136 349.39 484.293 331.108 478.314C329.925 468.868 327.964 459.536 325.244 450.413C348.24 440.524 347.052 413.772 333.484 406.184C320.836 399.132 313.861 409.135 305.544 411.933C294.046 415.765 284.273 407.487 269.172 407.487C240.695 407.487 233.95 436.155 232.455 437.573C230.96 438.991 230.385 447.078 217.699 452.061C204.208 457.311 187.038 457.618 179.718 473.485C173.509 487.36 185.428 504.3 177.226 517.139C172.435 524.805 155.227 525.265 142.732 545.309C129.356 566.657 133.84 595.632 152.276 607.667C136.408 643.311 137.137 681.216 154.154 706.741C169.714 730.006 195.087 738.744 222.643 738.016C221.264 802.941 221.839 867.675 218.389 933.022C205.933 933.022 193.438 933.29 181.212 933.52C180.867 933.52 180.535 933.658 180.291 933.902C180.046 934.146 179.909 934.478 179.909 934.823C179.909 935.169 180.046 935.5 180.291 935.745C180.535 935.989 180.867 936.127 181.212 936.127C192.135 936.356 205.051 936.586 218.159 936.586C216.051 974.645 213.215 1013.24 209.727 1051.07C209.382 1054.9 218.351 1054.67 222.145 1054.9C221.097 1060.22 220.698 1065.66 220.957 1071.07C218.044 1073.64 213.79 1091.2 214.02 1094.45C214.02 1095.14 214.326 1095.57 214.786 1095.64C219.002 1096.33 282.701 1099.47 285.652 1095.99C285.726 1095.85 285.765 1095.7 285.765 1095.55C285.765 1095.39 285.726 1095.24 285.652 1095.11C281.398 1083.61 266.489 1073.91 254.301 1070.77L257.597 1056.09C260.127 1056.09 265.263 1056.47 265.991 1055.13C283.123 1016.5 298.722 976.599 312.328 936.625H368.055C378.671 970.702 388.042 1005.16 396.148 1039.92C399.406 1053.94 397.145 1053.18 406.19 1053.6C406.147 1059.06 406.804 1064.51 408.144 1069.81C405.205 1076.73 403.431 1084.08 402.894 1091.58C402.82 1091.71 402.781 1091.85 402.781 1092C402.781 1092.15 402.82 1092.29 402.894 1092.42C405.308 1095.49 474.105 1098.06 478.819 1095.26C482.651 1092.81 461.648 1072.45 443.022 1068.7C443.29 1063.8 443.175 1058.9 442.677 1054.02C445.935 1054.02 453.447 1054.9 453.447 1051.68C453.447 1015.5 452.22 976.753 449.614 936.701H862.852C863.37 936.686 863.862 936.466 864.217 936.088C864.573 935.711 864.764 935.208 864.749 934.689C864.734 934.171 864.513 933.68 864.136 933.324C863.759 932.968 863.255 932.777 862.737 932.792ZM343.602 864.417C353.146 890.671 358.243 906.998 366.867 933.137H313.478C322.791 905.58 335.669 864.149 344.139 829.31C347.013 817.812 352.801 822.68 350.693 832.031C348.24 843.568 343.487 864.149 343.602 864.417ZM440.301 1069.08C433.747 1072.07 417.305 1071.88 410.904 1070.04C410.482 1064.56 409.371 1059.08 409.294 1053.6L439.419 1053.94C439.687 1059 439.994 1064.02 440.301 1069.08ZM225.671 737.978C257.866 736.368 296.154 721.65 328.195 698.539C328.885 698.041 329.498 697.926 329.69 697.275C329.881 696.623 329.69 696.087 328.54 694.439C337.541 690.225 346.991 687.049 356.71 684.972C360.543 684.282 371.772 682.136 373.804 676.042L382.159 675.812C390.208 692.484 403.009 704.059 417.343 707.661L425.008 753.232C361.693 775.04 303.896 779.677 225.901 769.061C226.169 758.751 226.208 748.288 225.786 737.978H225.671ZM326.125 504.377C320.76 518.289 309.568 518.864 311.37 522.16V523.348C312.098 529.442 313.516 541.975 303.704 550.829C287.147 544.236 276.876 536.648 269.21 525.61C270.82 522.812 269.21 510.585 269.21 510.471C266.834 497.976 255.949 495.446 258.402 484.14C258.747 482.492 259.245 481.534 259.897 481.227C262.043 480.269 267.562 487.666 268.712 479.081C270.513 466.816 273.963 457.35 286.112 453.9C297.38 450.719 308.265 456.162 322.829 451.141C326.125 464.785 331.798 489.467 326.125 504.377ZM304.279 554.201C310.91 552.553 316.582 536.264 315.202 527.143C325.546 528.604 335.733 531.016 345.634 534.348C381.661 547.187 412.935 574.629 434.053 611.883C419.642 598.085 400.786 590.305 383.73 591.378C378.293 582.467 372.044 574.076 365.065 566.312C364.961 566.197 364.834 566.105 364.692 566.042C364.55 565.979 364.397 565.947 364.241 565.947C364.086 565.947 363.932 565.979 363.79 566.042C363.649 566.105 363.521 566.197 363.417 566.312C363.307 566.42 363.22 566.548 363.16 566.689C363.1 566.831 363.069 566.983 363.069 567.136C363.069 567.29 363.1 567.442 363.16 567.584C363.22 567.725 363.307 567.853 363.417 567.961C369.541 575.575 375.185 583.562 380.319 591.876C375.24 592.643 370.343 594.332 365.87 596.859C365.146 596.93 364.428 597.058 363.724 597.242C361.619 597.718 359.478 598.013 357.323 598.124C348.355 598.124 348.01 594.291 344.79 594.713C338.39 595.364 340.268 608.012 354.985 610.695C352.341 618.092 351.153 634.381 356.097 641.356C350.195 641.356 346.4 640.13 346.17 646.147C346.093 647.231 346.093 648.32 346.17 649.405C344.27 648.182 342.119 647.402 339.876 647.124C337.634 646.845 335.358 647.074 333.216 647.795C329.192 649.328 321.526 657.338 317.655 660.673C317.655 659.063 317.655 656.61 316.237 656.457C291.9 654.426 254.914 653.851 232.762 654.464C231.547 638.827 231.752 623.113 233.375 607.514C233.441 607.193 233.377 606.86 233.197 606.587C233.018 606.314 232.737 606.123 232.417 606.057C232.096 605.991 231.763 606.055 231.49 606.235C231.217 606.414 231.026 606.695 230.96 607.015C229.734 613.914 227.358 642.046 229.849 654.579L198.459 656.648C198.227 656.67 198.008 656.762 197.829 656.912C197.651 657.061 197.522 657.261 197.46 657.485C197.397 657.71 197.404 657.948 197.48 658.168C197.556 658.388 197.697 658.58 197.884 658.718C197.992 658.815 198.121 658.886 198.26 658.926C198.4 658.965 198.546 658.973 198.689 658.948C237.385 656.578 276.196 656.834 314.857 659.715C315.035 672.665 318.934 685.29 326.087 696.087C274.959 732.919 190.832 756.988 156.492 704.787C131.771 667.495 144.035 602.34 189.874 562.556C211.769 543.784 238.408 531.4 266.872 526.759C273.809 539.982 299.258 555.351 304.241 554.125L304.279 554.201ZM361.079 600.653C359.126 602.715 357.487 605.052 356.212 607.59C349.045 606.517 344.982 602.761 344.292 599.657C343.756 597.51 345.02 596.629 347.665 598.43C351.825 600.46 356.487 601.232 361.079 600.653ZM379.706 621.771C379.512 621.994 379.397 622.276 379.379 622.571C379.361 622.867 379.442 623.16 379.608 623.405C379.774 623.65 380.017 623.833 380.298 623.926C380.579 624.019 380.883 624.016 381.162 623.917C384.267 622.691 385.723 622.959 385.953 623.534C386.183 624.109 384.957 626.945 382.466 628.172C380.856 628.977 377.751 629.705 375.375 625.374C373.42 621.848 376.755 617.977 375.375 617.172C373.995 616.367 370.086 622.308 373.42 627.52C372.732 628.025 371.908 628.313 371.054 628.347C370.201 628.381 369.357 628.16 368.63 627.712C366.943 626.409 365.793 622.768 367.748 616.214C368.476 613.684 364.184 613.033 363.647 623.879C363.417 625.374 361.769 634.572 361.271 637.677C360.773 640.781 360.083 641.011 360.006 641.049C359.929 641.088 359.585 641.049 359.278 640.628C356.557 637.562 353.299 621.963 358.511 609.967C360.132 605.921 362.9 602.437 366.475 599.945C370.05 597.453 374.276 596.06 378.633 595.939C381.195 595.89 383.731 596.461 386.025 597.603C388.319 598.745 390.303 600.424 391.809 602.498C393.314 604.571 394.296 606.978 394.672 609.513C395.047 612.048 394.804 614.636 393.964 617.057C393.551 618.345 392.849 619.522 391.913 620.499C390.976 621.475 389.83 622.225 388.56 622.691C388.122 621.943 387.514 621.308 386.786 620.839C386.057 620.369 385.228 620.077 384.366 619.988C383.504 619.898 382.632 620.013 381.823 620.323C381.013 620.633 380.288 621.129 379.706 621.771ZM351.498 654.234C351.028 652.913 350.122 651.791 348.93 651.053L349.39 644.844H367.556C367.556 646.913 368.131 653.007 368.131 653.007C362.565 653.032 357.007 653.442 351.498 654.234ZM363.379 641.394C364.391 637.207 365.121 632.956 365.564 628.67C366.809 630.027 368.502 630.89 370.332 631.101C372.162 631.312 374.006 630.857 375.528 629.82L376.142 630.241C374.502 637.723 374.294 645.448 375.528 653.007H371.696C371.8 649.38 371.4 645.755 370.508 642.238C369.396 641.241 365.065 641.394 363.379 641.394ZM333.867 650.669C336.436 650.027 339.129 650.076 341.673 650.809C344.217 651.543 346.522 652.936 348.355 654.847C349.045 655.997 348.93 656.38 348.891 656.495C348.853 656.61 346.592 656.917 345.059 656.84C342.794 656.474 340.471 656.795 338.39 657.76C335.23 660.295 333.16 663.942 332.603 667.955C332.028 677.728 360.274 676.502 369.933 676.195C362.804 683.477 341.571 681.829 327.199 691.871C322.176 683.207 318.98 673.607 317.808 663.662C320.338 662.512 329.805 652.433 333.867 650.669ZM453.715 687.118C445.436 711.302 419.489 705.093 418.416 704.825C400.326 700.264 389.863 683.4 385.915 675.582C390.208 674.585 388.981 670.369 388.56 666.307L421.98 665.54C424.663 670.638 431.025 668.951 430.719 663.854C430.758 662.745 430.408 661.657 429.729 660.779C429.05 659.901 428.086 659.288 427.002 659.046C425.919 658.805 424.785 658.951 423.798 659.458C422.811 659.965 422.032 660.801 421.597 661.823C416.806 661.401 393.235 662.053 388.291 662.589C387.716 652.318 388.291 653.046 378.825 653.084C377.943 645.88 377.943 638.595 378.825 631.391C380.832 631.766 382.908 631.422 384.688 630.42C386.468 629.418 387.838 627.821 388.56 625.91C394.922 625.106 401.322 614.068 395.688 602.263C394.634 600.281 393.18 598.54 391.419 597.148C389.657 595.756 387.627 594.744 385.455 594.176C414.698 593.409 441.182 616.98 451.76 645.035C452.642 644.652 452.297 645.035 451.76 645.035C457.205 658.427 457.895 673.28 453.715 687.118ZM254.416 1056.01C253.197 1060.84 252.301 1065.74 251.733 1070.69C242.411 1071.66 233.019 1071.76 223.678 1071C224.291 1065.67 224.866 1060.38 225.441 1055.05L254.416 1056.01ZM765.311 899.218C773.666 892.357 810.613 901.096 805.094 932.907H449.384L446.05 890.441C465.481 883.696 479.739 893.967 484.759 906.462C485.641 908.8 490.585 906.807 482.881 897.187C477.986 891.137 471.073 887.054 463.411 885.689C481.962 849.968 534.469 855.679 544.664 894.082C545.201 896.113 548.228 895.117 547.692 893.086C544.616 881.76 537.385 872.011 527.44 865.781C517.495 859.551 505.567 857.298 494.034 859.473C497.284 852.94 502.093 847.308 508.036 843.075C513.979 838.842 520.873 836.138 528.11 835.202C535.346 834.266 542.702 835.127 549.526 837.709C556.351 840.292 562.434 844.515 567.238 850.006C570.764 853.839 582.569 876.299 586.402 878.943C583.251 884.346 581.279 890.354 580.614 896.573C575.876 898.309 571.568 901.047 567.983 904.598C564.398 908.15 561.621 912.433 559.841 917.155C559.714 917.445 559.708 917.773 559.823 918.068C559.938 918.362 560.165 918.599 560.455 918.726C560.744 918.853 561.073 918.86 561.367 918.745C561.662 918.63 561.899 918.403 562.026 918.113C564.345 912.741 568.024 908.067 572.7 904.552C577.376 901.036 582.889 898.8 588.693 898.065C594.497 897.33 600.393 898.121 605.798 900.359C611.203 902.598 615.931 906.207 619.516 910.831C619.77 911.187 620.155 911.427 620.586 911.499C621.018 911.571 621.46 911.468 621.816 911.214C622.171 910.96 622.412 910.575 622.484 910.144C622.555 909.713 622.453 909.27 622.199 908.915C617.784 903.068 611.717 898.68 604.782 896.316C597.848 893.952 590.364 893.721 583.297 895.654C584.424 889.551 586.773 883.739 590.205 878.569C593.637 873.398 598.079 868.975 603.265 865.567C609.536 861.547 616.725 859.186 624.158 858.706C631.591 858.226 639.024 859.643 645.76 862.823C652.495 866.003 658.312 870.842 662.665 876.886C667.018 882.931 669.763 889.982 670.644 897.378C670.727 897.76 670.946 898.099 671.26 898.331C671.575 898.564 671.963 898.674 672.352 898.641C672.742 898.608 673.106 898.434 673.377 898.153C673.648 897.871 673.807 897.5 673.825 897.11C672.809 888.673 669.545 880.665 664.374 873.922C659.202 867.18 652.313 861.951 644.428 858.783C646.986 852.035 651.232 846.056 656.762 841.419C662.292 836.782 668.919 833.642 676.01 832.3C698.392 828.85 717.594 846.059 720.43 866.334C714.566 867.304 708.999 869.592 704.146 873.024C699.294 876.456 695.282 880.943 692.413 886.149C691.723 887.452 693.831 888.601 694.56 887.337C698.745 880.263 705.137 874.76 712.753 871.672C720.37 868.584 728.789 868.082 736.719 870.243C744.348 872.673 750.987 877.506 755.643 884.02C760.298 890.534 762.722 898.38 762.551 906.385C762.551 907.42 763.931 908.723 764.966 907.995C765.387 907.726 766.614 906.845 765.349 899.218H765.311ZM543.591 485.75C569.883 481.151 597.248 480.346 635 483.144C641.056 535.23 641.937 584.288 642.895 636.68C635.537 620.43 628.063 596.706 628.178 580.34C628.142 561.302 623.514 542.554 614.687 525.686C604.185 505.641 589.966 491.46 574.482 508.094C553.019 531.09 554.552 558.839 554.974 589.615C553.552 603.301 550.608 616.786 546.197 629.82C544.856 565.929 541.138 518.864 543.591 485.75ZM697.204 730.044C694.385 729.603 691.515 729.603 688.696 730.044L689.079 699.843C689.191 699.158 689.146 698.458 688.947 697.793C688.748 697.129 688.4 696.519 687.929 696.01C679.152 688.651 654.585 664.965 646.46 643.847C646.46 621.618 646.115 599.082 645.233 576.852C664.665 576.277 682.832 576.507 698.124 576.852C699.657 614.221 696.783 679.529 697.204 730.044ZM544.127 832.568C536.368 830.843 528.299 831.105 520.668 833.329C513.037 835.554 506.091 839.668 500.473 845.292C500.205 837.052 498.519 785.848 497.944 769.75L541.483 768.907C541.368 776.688 543.399 825.056 544.127 832.568ZM628.983 606.785C635.996 635.799 648.568 666.805 685.744 698.348C685.744 708.696 684.556 734.873 685.246 744.838C684.48 744.838 628.063 745.221 623.924 745.566C628.211 699.438 629.9 653.104 628.983 606.785ZM555.817 607.36C558.385 654.311 563.099 701.031 569.883 746.409C560.493 746.18 516.456 744.838 510.055 745.145C510.055 738.859 508.484 702.679 508.33 699.153C532.741 673.819 549.242 641.922 555.817 607.36ZM544.319 768.831C547.079 768.831 553.173 769.482 552.828 766.761C551.105 760.768 548.754 754.974 545.814 749.476L570.266 749.821C570.841 753.347 571.378 756.873 571.914 760.399C568.312 764.231 561.029 786.461 560.033 790.485C559.956 790.753 559.944 791.035 559.998 791.308C560.051 791.581 560.168 791.837 560.34 792.057C561.259 793.206 563.674 793.36 566.242 793.36C555.089 811.028 561.144 832.874 565.399 843.644C560.094 838.994 553.882 835.496 547.155 833.373C548.037 826.359 544.817 775.269 544.357 768.831H544.319ZM563.942 810.377C564.754 804.46 566.679 798.751 569.615 793.551C587.294 794.26 604.999 794.068 622.659 792.976C624.767 801.293 643.968 823.101 620.129 855.87C613.66 856.747 607.447 858.975 601.894 862.408C596.341 865.842 591.572 870.404 587.897 875.8C574.329 855.296 560.493 835.059 563.981 810.377H563.942ZM625.61 648.562C625.035 687.195 622.659 721.037 619.823 758.061L574.712 759.249C566.204 700.341 562.563 658.182 559.381 609.775C558.5 596.054 557.618 581.835 557.925 567.922C558.423 544.045 563.291 527.028 573.256 514.265C587.36 496.29 598.781 504.3 609.973 524.191C616.4 535.674 620.82 548.169 623.042 561.138C626.491 580.685 625.802 637.408 625.648 648.562H625.61ZM641.707 857.787C636.193 856.001 630.403 855.222 624.613 855.487C631.062 846.376 634.654 835.553 634.934 824.394C635.214 813.236 632.168 802.246 626.185 792.823C628.676 792.823 635.307 792.823 634.54 790.485C633.237 786.116 629.558 777.033 626.606 769.712C624.69 764.883 622.774 760.705 622.774 759.594C623.004 757.563 623.924 748.517 623.924 748.517C627.488 749.092 644.543 748.517 650.331 748.517C645.463 763.848 646.115 761.932 645.08 764.576C644.313 766.608 643.93 767.604 644.428 768.409C644.927 769.214 646.958 769.176 652.094 769.291C652.094 791.405 653.972 816.969 654.93 839.007C648.72 843.773 644.119 850.327 641.745 857.787H641.707ZM654.547 769.252L698.201 769.674C696.811 790.541 696.888 811.481 698.431 832.338C691.852 829.452 684.637 828.321 677.49 829.053C670.344 829.785 663.509 832.356 657.651 836.516C656.846 814.094 656.233 791.06 654.585 769.252H654.547ZM543.783 482.875C546.427 451.869 556.622 410.361 589.774 386.522C621.662 408.407 630.362 445.775 634.578 479.618C607.405 477.625 569.155 477.893 543.821 482.875H543.783ZM492.042 581.873C500.972 581.873 534.201 581.413 541.866 581.375C542.556 599.772 543.259 618.194 543.974 636.642C536.884 655.039 520.978 683.324 506.069 697.198C505.303 701.031 506.299 725.713 506.491 730.159C503.693 730.427 500.895 730.696 498.289 731.079C496.756 679.491 492.042 612.841 492.042 581.873Z" fill="black"/>
<path d="M306.502 495.217C296.116 494.412 293.471 486.862 291.172 487.552C290.558 487.552 290.29 488.356 290.137 488.778C286.879 495.869 291.018 504.684 298.262 504.684C300.49 504.445 302.612 503.606 304.401 502.256C306.189 500.906 307.578 499.096 308.419 497.018C308.545 496.754 308.584 496.457 308.531 496.169C308.477 495.881 308.333 495.617 308.119 495.417C307.906 495.216 307.634 495.088 307.343 495.053C307.053 495.017 306.758 495.074 306.502 495.217ZM304.663 497.862C299.488 504.76 291.287 501.694 292.091 492.227C293.681 493.987 295.62 495.397 297.784 496.367C299.949 497.337 302.291 497.846 304.663 497.862ZM595.524 662.781C595.462 662.373 595.256 662 594.943 661.73C594.63 661.461 594.231 661.313 593.818 661.313C593.405 661.313 593.006 661.461 592.693 661.73C592.38 662 592.174 662.373 592.113 662.781C592.113 668.568 594.029 739.971 595.102 747.713C595.102 748.079 595.247 748.43 595.506 748.689C595.765 748.947 596.116 749.093 596.482 749.093C596.848 749.093 597.199 748.947 597.457 748.689C597.716 748.43 597.862 748.079 597.862 747.713C599.586 723.337 596.329 688.038 595.524 662.781ZM292.743 477.165C293.969 477.165 294.353 475.862 294.084 474.521C293.548 471.838 291.402 471.684 290.865 473.217C290.328 474.751 291.095 477.165 292.743 477.165ZM288.68 460.953C286.955 461.296 285.4 462.222 284.276 463.576C283.152 464.93 282.529 466.629 282.51 468.388C282.816 470.381 284.464 470.381 284.733 468.925C285.538 464.824 287.262 465.092 289.409 463.789C289.718 463.638 289.965 463.385 290.11 463.073C290.254 462.76 290.286 462.408 290.201 462.074C290.115 461.741 289.917 461.447 289.64 461.243C289.363 461.039 289.024 460.936 288.68 460.953ZM680.149 821.224C680.149 821.952 681.567 821.722 681.72 820.994C682.334 818.387 679.497 788.684 679.957 780.636C679.957 779.601 678.424 779.639 678.348 780.636C677.64 794.191 678.243 807.784 680.149 821.224ZM591.998 852.383C592.764 852.958 593.952 852.038 593.454 851.195C591.998 848.627 589.928 846.634 587.743 842.687C584.39 836.431 582.456 829.513 582.079 822.425C581.701 815.338 582.889 808.254 585.559 801.677C585.98 800.719 584.447 800.144 583.987 801.14C580.729 808.618 579.405 816.795 580.135 824.919C580.865 833.043 583.626 840.853 588.165 847.631C589.19 849.403 590.483 851.006 591.998 852.383Z" fill="black"/>
<path fill-rule="evenodd" clip-rule="evenodd" d="M716 25C716 11.1929 704.807 0 691 0H309C295.193 0 284 11.1929 284 25V25C284 38.8071 295.193 50 309 50H337C366.271 50 390 73.7289 390 103V150C390 205.228 434.772 250 490 250H510C565.228 250 610 205.228 610 150V103C610 73.7289 633.729 50 663 50H691C704.807 50 716 38.8071 716 25V25Z" fill="#EF5350"/>
<path d="M505.66 204.875C496.16 204.875 487.285 203.188 479.035 199.812C470.785 196.312 463.535 191.5 457.285 185.375C451.035 179.25 446.16 172.125 442.66 164C439.285 155.75 437.598 146.875 437.598 137.375C437.598 128 439.285 119.25 442.66 111.125C446.16 103 450.973 95.9375 457.098 89.9375C463.348 83.8125 470.598 79.0625 478.848 75.6875C487.098 72.3125 495.973 70.625 505.473 70.625C512.098 70.625 518.535 71.5625 524.785 73.4375C531.16 75.3125 536.91 77.9375 542.035 81.3125C547.16 84.6875 551.348 88.5625 554.598 92.9375L541.473 106.625C537.723 103 533.848 100 529.848 97.625C525.973 95.25 521.973 93.4375 517.848 92.1875C513.723 90.9375 509.598 90.3125 505.473 90.3125C498.723 90.3125 492.473 91.5 486.723 93.875C481.098 96.25 476.098 99.5625 471.723 103.812C467.473 108.062 464.16 113.062 461.785 118.812C459.41 124.437 458.223 130.625 458.223 137.375C458.223 143.875 459.473 150.062 461.973 155.937C464.473 161.687 467.91 166.75 472.285 171.125C476.785 175.5 481.91 178.937 487.66 181.437C493.535 183.937 499.723 185.187 506.223 185.187C511.098 185.187 515.723 184.5 520.098 183.125C524.473 181.625 528.348 179.562 531.723 176.937C535.098 174.312 537.723 171.312 539.598 167.937C541.473 164.437 542.41 160.75 542.41 156.875V153.125L545.223 155.75H505.098V135.687H563.223C563.473 137.062 563.66 138.437 563.785 139.812C563.91 141.062 563.973 142.312 563.973 143.562C564.098 144.687 564.16 145.812 564.16 146.937C564.16 155.562 562.66 163.437 559.66 170.562C556.66 177.562 552.473 183.625 547.098 188.75C541.848 193.875 535.66 197.875 528.535 200.75C521.535 203.5 513.91 204.875 505.66 204.875Z" fill="white"/>
</g>
<defs>
<clipPath id="clip0_19_67">
<rect width="1000" height="1400" fill="white"/>
</clipPath>
</defs>
</svg>
